<svg version="1.1" xmlns="http://www.w3.org/2000/svg" viewBox="0 0 94.0800579444658 94.0800579444658" width="94.0800579444658" height="94.0800579444658"><!-- svg-source:excalidraw --><metadata></metadata><defs><style class="style-fonts">
      </style></defs><g stroke-linecap="round" transform="translate(10.000000000000455 10) rotate(0 37.040028972232676 37.0400289722329)"><path d="M74.08 37.04 C74.08 38.97, 73.93 40.93, 73.62 42.83 C73.32 44.74, 72.86 46.65, 72.27 48.49 C71.67 50.32, 70.92 52.13, 70.04 53.86 C69.17 55.58, 68.14 57.25, 67.01 58.81 C65.87 60.37, 64.6 61.87, 63.23 63.23 C61.87 64.6, 60.37 65.87, 58.81 67.01 C57.25 68.14, 55.58 69.17, 53.86 70.04 C52.13 70.92, 50.32 71.67, 48.49 72.27 C46.65 72.86, 44.74 73.32, 42.83 73.62 C40.93 73.93, 38.97 74.08, 37.04 74.08 C35.11 74.08, 33.15 73.93, 31.25 73.62 C29.34 73.32, 27.43 72.86, 25.59 72.27 C23.76 71.67, 21.95 70.92, 20.22 70.04 C18.5 69.17, 16.83 68.14, 15.27 67.01 C13.71 65.87, 12.21 64.6, 10.85 63.23 C9.48 61.87, 8.21 60.37, 7.07 58.81 C5.94 57.25, 4.91 55.58, 4.04 53.86 C3.16 52.13, 2.41 50.32, 1.81 48.49 C1.22 46.65, 0.76 44.74, 0.46 42.83 C0.15 40.93, 0 38.97, 0 37.04 C0 35.11, 0.15 33.15, 0.46 31.25 C0.76 29.34, 1.22 27.43, 1.81 25.59 C2.41 23.76, 3.16 21.95, 4.04 20.22 C4.91 18.5, 5.94 16.83, 7.07 15.27 C8.21 13.71, 9.48 12.21, 10.85 10.85 C12.21 9.48, 13.71 8.21, 15.27 7.07 C16.83 5.94, 18.5 4.91, 20.22 4.04 C21.95 3.16, 23.76 2.41, 25.59 1.81 C27.43 1.22, 29.34 0.76, 31.25 0.46 C33.15 0.15, 35.11 0, 37.04 0 C38.97 0, 40.93 0.15, 42.83 0.46 C44.74 0.76, 46.65 1.22, 48.49 1.81 C50.32 2.41, 52.13 3.16, 53.86 4.04 C55.58 4.91, 57.25 5.94, 58.81 7.07 C60.37 8.21, 61.87 9.48, 63.23 10.85 C64.6 12.21, 65.87 13.71, 67.01 15.27 C68.14 16.83, 69.17 18.5, 70.04 20.22 C70.92 21.95, 71.67 23.76, 72.27 25.59 C72.86 27.43, 73.32 29.34, 73.62 31.25 C73.93 33.15, 74 36.07, 74.08 37.04 C74.16 38.01, 74.16 36.07, 74.08 37.04" stroke="none" stroke-width="0" fill="#ffffff"></path><path d="M74.08 37.04 C74.08 38.97, 73.93 40.93, 73.62 42.83 C73.32 44.74, 72.86 46.65, 72.27 48.49 C71.67 50.32, 70.92 52.13, 70.04 53.86 C69.17 55.58, 68.14 57.25, 67.01 58.81 C65.87 60.37, 64.6 61.87, 63.23 63.23 C61.87 64.6, 60.37 65.87, 58.81 67.01 C57.25 68.14, 55.58 69.17, 53.86 70.04 C52.13 70.92, 50.32 71.67, 48.49 72.27 C46.65 72.86, 44.74 73.32, 42.83 73.62 C40.93 73.93, 38.97 74.08, 37.04 74.08 C35.11 74.08, 33.15 73.93, 31.25 73.62 C29.34 73.32, 27.43 72.86, 25.59 72.27 C23.76 71.67, 21.95 70.92, 20.22 70.04 C18.5 69.17, 16.83 68.14, 15.27 67.01 C13.71 65.87, 12.21 64.6, 10.85 63.23 C9.48 61.87, 8.21 60.37, 7.07 58.81 C5.94 57.25, 4.91 55.58, 4.04 53.86 C3.16 52.13, 2.41 50.32, 1.81 48.49 C1.22 46.65, 0.76 44.74, 0.46 42.83 C0.15 40.93, 0 38.97, 0 37.04 C0 35.11, 0.15 33.15, 0.46 31.25 C0.76 29.34, 1.22 27.43, 1.81 25.59 C2.41 23.76, 3.16 21.95, 4.04 20.22 C4.91 18.5, 5.94 16.83, 7.07 15.27 C8.21 13.71, 9.48 12.21, 10.85 10.85 C12.21 9.48, 13.71 8.21, 15.27 7.07 C16.83 5.94, 18.5 4.91, 20.22 4.04 C21.95 3.16, 23.76 2.41, 25.59 1.81 C27.43 1.22, 29.34 0.76, 31.25 0.46 C33.15 0.15, 35.11 0, 37.04 0 C38.97 0, 40.93 0.15, 42.83 0.46 C44.74 0.76, 46.65 1.22, 48.49 1.81 C50.32 2.41, 52.13 3.16, 53.86 4.04 C55.58 4.91, 57.25 5.94, 58.81 7.07 C60.37 8.21, 61.87 9.48, 63.23 10.85 C64.6 12.21, 65.87 13.71, 67.01 15.27 C68.14 16.83, 69.17 18.5, 70.04 20.22 C70.92 21.95, 71.67 23.76, 72.27 25.59 C72.86 27.43, 73.32 29.34, 73.62 31.25 C73.93 33.15, 74 36.07, 74.08 37.04 C74.16 38.01, 74.16 36.07, 74.08 37.04" stroke="transparent" stroke-width="4" fill="none"></path></g><g stroke-linecap="round" transform="translate(13.159762573731314 13.159763061901685) rotate(0 33.88026609488179 33.880266094882245)"><path d="M67.76 33.88 C67.76 35.65, 67.62 37.44, 67.34 39.18 C67.07 40.93, 66.65 42.67, 66.1 44.35 C65.56 46.03, 64.87 47.69, 64.07 49.26 C63.27 50.84, 62.33 52.37, 61.29 53.79 C60.25 55.22, 59.09 56.59, 57.84 57.84 C56.59 59.09, 55.22 60.25, 53.79 61.29 C52.37 62.33, 50.84 63.27, 49.26 64.07 C47.69 64.87, 46.03 65.56, 44.35 66.1 C42.67 66.65, 40.93 67.07, 39.18 67.34 C37.44 67.62, 35.65 67.76, 33.88 67.76 C32.11 67.76, 30.33 67.62, 28.58 67.34 C26.84 67.07, 25.09 66.65, 23.41 66.1 C21.73 65.56, 20.07 64.87, 18.5 64.07 C16.92 63.27, 15.4 62.33, 13.97 61.29 C12.54 60.25, 11.17 59.09, 9.92 57.84 C8.67 56.59, 7.51 55.22, 6.47 53.79 C5.43 52.37, 4.49 50.84, 3.69 49.26 C2.89 47.69, 2.2 46.03, 1.66 44.35 C1.11 42.67, 0.69 40.93, 0.42 39.18 C0.14 37.44, 0 35.65, 0 33.88 C0 32.11, 0.14 30.33, 0.42 28.58 C0.69 26.84, 1.11 25.09, 1.66 23.41 C2.2 21.73, 2.89 20.07, 3.69 18.5 C4.49 16.92, 5.43 15.4, 6.47 13.97 C7.51 12.54, 8.67 11.17, 9.92 9.92 C11.17 8.67, 12.54 7.51, 13.97 6.47 C15.4 5.43, 16.92 4.49, 18.5 3.69 C20.07 2.89, 21.73 2.2, 23.41 1.66 C25.09 1.11, 26.84 0.69, 28.58 0.42 C30.33 0.14, 32.11 0, 33.88 0 C35.65 0, 37.44 0.14, 39.18 0.42 C40.93 0.69, 42.67 1.11, 44.35 1.66 C46.03 2.2, 47.69 2.89, 49.26 3.69 C50.84 4.49, 52.37 5.43, 53.79 6.47 C55.22 7.51, 56.59 8.67, 57.84 9.92 C59.09 11.17, 60.25 12.54, 61.29 13.97 C62.33 15.4, 63.27 16.92, 64.07 18.5 C64.87 20.07, 65.56 21.73, 66.1 23.41 C66.65 25.09, 67.07 26.84, 67.34 28.58 C67.62 30.33, 67.69 33, 67.76 33.88 C67.83 34.76, 67.83 33, 67.76 33.88" stroke="none" stroke-width="0" fill="#343a40"></path><path d="M67.76 33.88 C67.76 35.65, 67.62 37.44, 67.34 39.18 C67.07 40.93, 66.65 42.67, 66.1 44.35 C65.56 46.03, 64.87 47.69, 64.07 49.26 C63.27 50.84, 62.33 52.37, 61.29 53.79 C60.25 55.22, 59.09 56.59, 57.84 57.84 C56.59 59.09, 55.22 60.25, 53.79 61.29 C52.37 62.33, 50.84 63.27, 49.26 64.07 C47.69 64.87, 46.03 65.56, 44.35 66.1 C42.67 66.65, 40.93 67.07, 39.18 67.34 C37.44 67.62, 35.65 67.76, 33.88 67.76 C32.11 67.76, 30.33 67.62, 28.58 67.34 C26.84 67.07, 25.09 66.65, 23.41 66.1 C21.73 65.56, 20.07 64.87, 18.5 64.07 C16.92 63.27, 15.4 62.33, 13.97 61.29 C12.54 60.25, 11.17 59.09, 9.92 57.84 C8.67 56.59, 7.51 55.22, 6.47 53.79 C5.43 52.37, 4.49 50.84, 3.69 49.26 C2.89 47.69, 2.2 46.03, 1.66 44.35 C1.11 42.67, 0.69 40.93, 0.42 39.18 C0.14 37.44, 0 35.65, 0 33.88 C0 32.11, 0.14 30.33, 0.42 28.58 C0.69 26.84, 1.11 25.09, 1.66 23.41 C2.2 21.73, 2.89 20.07, 3.69 18.5 C4.49 16.92, 5.43 15.4, 6.47 13.97 C7.51 12.54, 8.67 11.17, 9.92 9.92 C11.17 8.67, 12.54 7.51, 13.97 6.47 C15.4 5.43, 16.92 4.49, 18.5 3.69 C20.07 2.89, 21.73 2.2, 23.41 1.66 C25.09 1.11, 26.84 0.69, 28.58 0.42 C30.33 0.14, 32.11 0, 33.88 0 C35.65 0, 37.44 0.14, 39.18 0.42 C40.93 0.69, 42.67 1.11, 44.35 1.66 C46.03 2.2, 47.69 2.89, 49.26 3.69 C50.84 4.49, 52.37 5.43, 53.79 6.47 C55.22 7.51, 56.59 8.67, 57.84 9.92 C59.09 11.17, 60.25 12.54, 61.29 13.97 C62.33 15.4, 63.27 16.92, 64.07 18.5 C64.87 20.07, 65.56 21.73, 66.1 23.41 C66.65 25.09, 67.07 26.84, 67.34 28.58 C67.62 30.33, 67.69 33, 67.76 33.88 C67.83 34.76, 67.83 33, 67.76 33.88" stroke="transparent" stroke-width="4" fill="none"></path></g><g stroke-linecap="round" transform="translate(17.782066695414414 17.78206718358524) rotate(0 29.257961973198917 29.25796197319869)"><path d="M58.52 29.26 C58.52 30.95, 58.37 32.67, 58.07 34.34 C57.78 36.01, 57.33 37.67, 56.75 39.26 C56.17 40.86, 55.44 42.42, 54.6 43.89 C53.75 45.35, 52.76 46.77, 51.67 48.06 C50.58 49.36, 49.36 50.58, 48.06 51.67 C46.77 52.76, 45.35 53.75, 43.89 54.6 C42.42 55.44, 40.86 56.17, 39.26 56.75 C37.67 57.33, 36.01 57.78, 34.34 58.07 C32.67 58.37, 30.95 58.52, 29.26 58.52 C27.56 58.52, 25.85 58.37, 24.18 58.07 C22.51 57.78, 20.84 57.33, 19.25 56.75 C17.66 56.17, 16.1 55.44, 14.63 54.6 C13.16 53.75, 11.75 52.76, 10.45 51.67 C9.15 50.58, 7.93 49.36, 6.85 48.06 C5.76 46.77, 4.77 45.35, 3.92 43.89 C3.07 42.42, 2.34 40.86, 1.76 39.26 C1.19 37.67, 0.74 36.01, 0.44 34.34 C0.15 32.67, 0 30.95, 0 29.26 C0 27.56, 0.15 25.85, 0.44 24.18 C0.74 22.51, 1.19 20.84, 1.76 19.25 C2.34 17.66, 3.07 16.1, 3.92 14.63 C4.77 13.16, 5.76 11.75, 6.85 10.45 C7.93 9.15, 9.15 7.93, 10.45 6.85 C11.75 5.76, 13.16 4.77, 14.63 3.92 C16.1 3.07, 17.66 2.34, 19.25 1.76 C20.84 1.19, 22.51 0.74, 24.18 0.44 C25.85 0.15, 27.56 0, 29.26 0 C30.95 0, 32.67 0.15, 34.34 0.44 C36.01 0.74, 37.67 1.19, 39.26 1.76 C40.86 2.34, 42.42 3.07, 43.89 3.92 C45.35 4.77, 46.77 5.76, 48.06 6.85 C49.36 7.93, 50.58 9.15, 51.67 10.45 C52.76 11.75, 53.75 13.16, 54.6 14.63 C55.44 16.1, 56.17 17.66, 56.75 19.25 C57.33 20.84, 57.78 22.51, 58.07 24.18 C58.37 25.85, 58.44 28.41, 58.52 29.26 C58.59 30.1, 58.59 28.41, 58.52 29.26" stroke="none" stroke-width="0" fill="#ffec99"></path><path d="M58.52 29.26 C58.52 30.95, 58.37 32.67, 58.07 34.34 C57.78 36.01, 57.33 37.67, 56.75 39.26 C56.17 40.86, 55.44 42.42, 54.6 43.89 C53.75 45.35, 52.76 46.77, 51.67 48.06 C50.58 49.36, 49.36 50.58, 48.06 51.67 C46.77 52.76, 45.35 53.75, 43.89 54.6 C42.42 55.44, 40.86 56.17, 39.26 56.75 C37.67 57.33, 36.01 57.78, 34.34 58.07 C32.67 58.37, 30.95 58.52, 29.26 58.52 C27.56 58.52, 25.85 58.37, 24.18 58.07 C22.51 57.78, 20.84 57.33, 19.25 56.75 C17.66 56.17, 16.1 55.44, 14.63 54.6 C13.16 53.75, 11.75 52.76, 10.45 51.67 C9.15 50.58, 7.93 49.36, 6.85 48.06 C5.76 46.77, 4.77 45.35, 3.92 43.89 C3.07 42.42, 2.34 40.86, 1.76 39.26 C1.19 37.67, 0.74 36.01, 0.44 34.34 C0.15 32.67, 0 30.95, 0 29.26 C0 27.56, 0.15 25.85, 0.44 24.18 C0.74 22.51, 1.19 20.84, 1.76 19.25 C2.34 17.66, 3.07 16.1, 3.92 14.63 C4.77 13.16, 5.76 11.75, 6.85 10.45 C7.93 9.15, 9.15 7.93, 10.45 6.85 C11.75 5.76, 13.16 4.77, 14.63 3.92 C16.1 3.07, 17.66 2.34, 19.25 1.76 C20.84 1.19, 22.51 0.74, 24.18 0.44 C25.85 0.15, 27.56 0, 29.26 0 C30.95 0, 32.67 0.15, 34.34 0.44 C36.01 0.74, 37.67 1.19, 39.26 1.76 C40.86 2.34, 42.42 3.07, 43.89 3.92 C45.35 4.77, 46.77 5.76, 48.06 6.85 C49.36 7.93, 50.58 9.15, 51.67 10.45 C52.76 11.75, 53.75 13.16, 54.6 14.63 C55.44 16.1, 56.17 17.66, 56.75 19.25 C57.33 20.84, 57.78 22.51, 58.07 24.18 C58.37 25.85, 58.44 28.41, 58.52 29.26 C58.59 30.1, 58.59 28.41, 58.52 29.26" stroke="transparent" stroke-width="1" fill="none"></path></g><g stroke-linecap="round" transform="translate(33.49978239906932 14.249625236547217) rotate(187.87299598606762 6.9868941388174335 6.986894138817661)"><path d="M13.97 6.99 C13.97 7.39, 13.94 7.8, 13.87 8.2 C13.8 8.6, 13.69 9, 13.55 9.38 C13.41 9.76, 13.24 10.13, 13.04 10.48 C12.84 10.83, 12.6 11.17, 12.34 11.48 C12.08 11.79, 11.79 12.08, 11.48 12.34 C11.17 12.6, 10.83 12.84, 10.48 13.04 C10.13 13.24, 9.76 13.41, 9.38 13.55 C9 13.69, 8.6 13.8, 8.2 13.87 C7.8 13.94, 7.39 13.97, 6.99 13.97 C6.58 13.97, 6.17 13.94, 5.77 13.87 C5.38 13.8, 4.98 13.69, 4.6 13.55 C4.22 13.41, 3.84 13.24, 3.49 13.04 C3.14 12.84, 2.81 12.6, 2.5 12.34 C2.19 12.08, 1.89 11.79, 1.63 11.48 C1.37 11.17, 1.14 10.83, 0.94 10.48 C0.73 10.13, 0.56 9.76, 0.42 9.38 C0.28 9, 0.18 8.6, 0.11 8.2 C0.04 7.8, 0 7.39, 0 6.99 C0 6.58, 0.04 6.17, 0.11 5.77 C0.18 5.38, 0.28 4.98, 0.42 4.6 C0.56 4.22, 0.73 3.84, 0.94 3.49 C1.14 3.14, 1.37 2.81, 1.63 2.5 C1.89 2.19, 2.19 1.89, 2.5 1.63 C2.81 1.37, 3.14 1.14, 3.49 0.94 C3.84 0.73, 4.22 0.56, 4.6 0.42 C4.98 0.28, 5.38 0.18, 5.77 0.11 C6.17 0.04, 6.58 0, 6.99 0 C7.39 0, 7.8 0.04, 8.2 0.11 C8.6 0.18, 9 0.28, 9.38 0.42 C9.76 0.56, 10.13 0.73, 10.48 0.94 C10.83 1.14, 11.17 1.37, 11.48 1.63 C11.79 1.89, 12.08 2.19, 12.34 2.5 C12.6 2.81, 12.84 3.14, 13.04 3.49 C13.24 3.84, 13.41 4.22, 13.55 4.6 C13.69 4.98, 13.8 5.38, 13.87 5.77 C13.94 6.17, 13.96 6.78, 13.97 6.99 C13.99 7.19, 13.99 6.78, 13.97 6.99" stroke="none" stroke-width="0" fill="#343a40"></path><path d="M13.97 6.99 C13.97 7.39, 13.94 7.8, 13.87 8.2 C13.8 8.6, 13.69 9, 13.55 9.38 C13.41 9.76, 13.24 10.13, 13.04 10.48 C12.84 10.83, 12.6 11.17, 12.34 11.48 C12.08 11.79, 11.79 12.08, 11.48 12.34 C11.17 12.6, 10.83 12.84, 10.48 13.04 C10.13 13.24, 9.76 13.41, 9.38 13.55 C9 13.69, 8.6 13.8, 8.2 13.87 C7.8 13.94, 7.39 13.97, 6.99 13.97 C6.58 13.97, 6.17 13.94, 5.77 13.87 C5.38 13.8, 4.98 13.69, 4.6 13.55 C4.22 13.41, 3.84 13.24, 3.49 13.04 C3.14 12.84, 2.81 12.6, 2.5 12.34 C2.19 12.08, 1.89 11.79, 1.63 11.48 C1.37 11.17, 1.14 10.83, 0.94 10.48 C0.73 10.13, 0.56 9.76, 0.42 9.38 C0.28 9, 0.18 8.6, 0.11 8.2 C0.04 7.8, 0 7.39, 0 6.99 C0 6.58, 0.04 6.17, 0.11 5.77 C0.18 5.38, 0.28 4.98, 0.42 4.6 C0.56 4.22, 0.73 3.84, 0.94 3.49 C1.14 3.14, 1.37 2.81, 1.63 2.5 C1.89 2.19, 2.19 1.89, 2.5 1.63 C2.81 1.37, 3.14 1.14, 3.49 0.94 C3.84 0.73, 4.22 0.56, 4.6 0.42 C4.98 0.28, 5.38 0.18, 5.77 0.11 C6.17 0.04, 6.58 0, 6.99 0 C7.39 0, 7.8 0.04, 8.2 0.11 C8.6 0.18, 9 0.28, 9.38 0.42 C9.76 0.56, 10.13 0.73, 10.48 0.94 C10.83 1.14, 11.17 1.37, 11.48 1.63 C11.79 1.89, 12.08 2.19, 12.34 2.5 C12.6 2.81, 12.84 3.14, 13.04 3.49 C13.24 3.84, 13.41 4.22, 13.55 4.6 C13.69 4.98, 13.8 5.38, 13.87 5.77 C13.94 6.17, 13.96 6.78, 13.97 6.99 C13.99 7.19, 13.99 6.78, 13.97 6.99" stroke="transparent" stroke-width="4" fill="none"></path></g><g stroke-linecap="round" transform="translate(39.91222841449871 15.926934757162599) rotate(187.87299598606762 8.08722783189296 8.08722783189296)"><path d="M16.17 8.09 C16.17 8.56, 16.13 9.03, 16.05 9.49 C15.97 9.95, 15.85 10.41, 15.69 10.85 C15.53 11.29, 15.33 11.73, 15.09 12.13 C14.86 12.54, 14.58 12.93, 14.28 13.29 C13.98 13.64, 13.64 13.98, 13.29 14.28 C12.93 14.58, 12.54 14.86, 12.13 15.09 C11.73 15.33, 11.29 15.53, 10.85 15.69 C10.41 15.85, 9.95 15.97, 9.49 16.05 C9.03 16.13, 8.56 16.17, 8.09 16.17 C7.62 16.17, 7.14 16.13, 6.68 16.05 C6.22 15.97, 5.76 15.85, 5.32 15.69 C4.88 15.53, 4.45 15.33, 4.04 15.09 C3.64 14.86, 3.25 14.58, 2.89 14.28 C2.53 13.98, 2.19 13.64, 1.89 13.29 C1.59 12.93, 1.32 12.54, 1.08 12.13 C0.85 11.73, 0.65 11.29, 0.49 10.85 C0.33 10.41, 0.2 9.95, 0.12 9.49 C0.04 9.03, 0 8.56, 0 8.09 C0 7.62, 0.04 7.14, 0.12 6.68 C0.2 6.22, 0.33 5.76, 0.49 5.32 C0.65 4.88, 0.85 4.45, 1.08 4.04 C1.32 3.64, 1.59 3.25, 1.89 2.89 C2.19 2.53, 2.53 2.19, 2.89 1.89 C3.25 1.59, 3.64 1.32, 4.04 1.08 C4.45 0.85, 4.88 0.65, 5.32 0.49 C5.76 0.33, 6.22 0.2, 6.68 0.12 C7.14 0.04, 7.62 0, 8.09 0 C8.56 0, 9.03 0.04, 9.49 0.12 C9.95 0.2, 10.41 0.33, 10.85 0.49 C11.29 0.65, 11.73 0.85, 12.13 1.08 C12.54 1.32, 12.93 1.59, 13.29 1.89 C13.64 2.19, 13.98 2.53, 14.28 2.89 C14.58 3.25, 14.86 3.64, 15.09 4.04 C15.33 4.45, 15.53 4.88, 15.69 5.32 C15.85 5.76, 15.97 6.22, 16.05 6.68 C16.13 7.14, 16.15 7.85, 16.17 8.09 C16.19 8.32, 16.19 7.85, 16.17 8.09" stroke="none" stroke-width="0" fill="#343a40"></path><path d="M16.17 8.09 C16.17 8.56, 16.13 9.03, 16.05 9.49 C15.97 9.95, 15.85 10.41, 15.69 10.85 C15.53 11.29, 15.33 11.73, 15.09 12.13 C14.86 12.54, 14.58 12.93, 14.28 13.29 C13.98 13.64, 13.64 13.98, 13.29 14.28 C12.93 14.58, 12.54 14.86, 12.13 15.09 C11.73 15.33, 11.29 15.53, 10.85 15.69 C10.41 15.85, 9.95 15.97, 9.49 16.05 C9.03 16.13, 8.56 16.17, 8.09 16.17 C7.62 16.17, 7.14 16.13, 6.68 16.05 C6.22 15.97, 5.76 15.85, 5.32 15.69 C4.88 15.53, 4.45 15.33, 4.04 15.09 C3.64 14.86, 3.25 14.58, 2.89 14.28 C2.53 13.98, 2.19 13.64, 1.89 13.29 C1.59 12.93, 1.32 12.54, 1.08 12.13 C0.85 11.73, 0.65 11.29, 0.49 10.85 C0.33 10.41, 0.2 9.95, 0.12 9.49 C0.04 9.03, 0 8.56, 0 8.09 C0 7.62, 0.04 7.14, 0.12 6.68 C0.2 6.22, 0.33 5.76, 0.49 5.32 C0.65 4.88, 0.85 4.45, 1.08 4.04 C1.32 3.64, 1.59 3.25, 1.89 2.89 C2.19 2.53, 2.53 2.19, 2.89 1.89 C3.25 1.59, 3.64 1.32, 4.04 1.08 C4.45 0.85, 4.88 0.65, 5.32 0.49 C5.76 0.33, 6.22 0.2, 6.68 0.12 C7.14 0.04, 7.62 0, 8.09 0 C8.56 0, 9.03 0.04, 9.49 0.12 C9.95 0.2, 10.41 0.33, 10.85 0.49 C11.29 0.65, 11.73 0.85, 12.13 1.08 C12.54 1.32, 12.93 1.59, 13.29 1.89 C13.64 2.19, 13.98 2.53, 14.28 2.89 C14.58 3.25, 14.86 3.64, 15.09 4.04 C15.33 4.45, 15.53 4.88, 15.69 5.32 C15.85 5.76, 15.97 6.22, 16.05 6.68 C16.13 7.14, 16.15 7.85, 16.17 8.09 C16.19 8.32, 16.19 7.85, 16.17 8.09" stroke="transparent" stroke-width="4" fill="none"></path></g><g stroke-linecap="round" transform="translate(49.3965696430123 14.792296077606807) rotate(187.87299598606762 6.9263874902153475 6.9263874902153475)"><path d="M13.85 6.93 C13.85 7.33, 13.82 7.73, 13.75 8.13 C13.68 8.52, 13.57 8.92, 13.44 9.3 C13.3 9.67, 13.13 10.04, 12.92 10.39 C12.72 10.74, 12.49 11.07, 12.23 11.38 C11.97 11.69, 11.69 11.97, 11.38 12.23 C11.07 12.49, 10.74 12.72, 10.39 12.92 C10.04 13.13, 9.67 13.3, 9.3 13.44 C8.92 13.57, 8.52 13.68, 8.13 13.75 C7.73 13.82, 7.33 13.85, 6.93 13.85 C6.53 13.85, 6.12 13.82, 5.72 13.75 C5.33 13.68, 4.93 13.57, 4.56 13.44 C4.18 13.3, 3.81 13.13, 3.46 12.92 C3.12 12.72, 2.78 12.49, 2.47 12.23 C2.17 11.97, 1.88 11.69, 1.62 11.38 C1.36 11.07, 1.13 10.74, 0.93 10.39 C0.73 10.04, 0.55 9.67, 0.42 9.3 C0.28 8.92, 0.17 8.52, 0.11 8.13 C0.04 7.73, 0 7.33, 0 6.93 C0 6.53, 0.04 6.12, 0.11 5.72 C0.17 5.33, 0.28 4.93, 0.42 4.56 C0.55 4.18, 0.73 3.81, 0.93 3.46 C1.13 3.12, 1.36 2.78, 1.62 2.47 C1.88 2.17, 2.17 1.88, 2.47 1.62 C2.78 1.36, 3.12 1.13, 3.46 0.93 C3.81 0.73, 4.18 0.55, 4.56 0.42 C4.93 0.28, 5.33 0.17, 5.72 0.11 C6.12 0.04, 6.53 0, 6.93 0 C7.33 0, 7.73 0.04, 8.13 0.11 C8.52 0.17, 8.92 0.28, 9.3 0.42 C9.67 0.55, 10.04 0.73, 10.39 0.93 C10.74 1.13, 11.07 1.36, 11.38 1.62 C11.69 1.88, 11.97 2.17, 12.23 2.47 C12.49 2.78, 12.72 3.12, 12.92 3.46 C13.13 3.81, 13.3 4.18, 13.44 4.56 C13.57 4.93, 13.68 5.33, 13.75 5.72 C13.82 6.12, 13.84 6.73, 13.85 6.93 C13.87 7.13, 13.87 6.73, 13.85 6.93" stroke="none" stroke-width="0" fill="#343a40"></path><path d="M13.85 6.93 C13.85 7.33, 13.82 7.73, 13.75 8.13 C13.68 8.52, 13.57 8.92, 13.44 9.3 C13.3 9.67, 13.13 10.04, 12.92 10.39 C12.72 10.74, 12.49 11.07, 12.23 11.38 C11.97 11.69, 11.69 11.97, 11.38 12.23 C11.07 12.49, 10.74 12.72, 10.39 12.92 C10.04 13.13, 9.67 13.3, 9.3 13.44 C8.92 13.57, 8.52 13.68, 8.13 13.75 C7.73 13.82, 7.33 13.85, 6.93 13.85 C6.53 13.85, 6.12 13.82, 5.72 13.75 C5.33 13.68, 4.93 13.57, 4.56 13.44 C4.18 13.3, 3.81 13.13, 3.46 12.92 C3.12 12.72, 2.78 12.49, 2.47 12.23 C2.17 11.97, 1.88 11.69, 1.62 11.38 C1.36 11.07, 1.13 10.74, 0.93 10.39 C0.73 10.04, 0.55 9.67, 0.42 9.3 C0.28 8.92, 0.17 8.52, 0.11 8.13 C0.04 7.73, 0 7.33, 0 6.93 C0 6.53, 0.04 6.12, 0.11 5.72 C0.17 5.33, 0.28 4.93, 0.42 4.56 C0.55 4.18, 0.73 3.81, 0.93 3.46 C1.13 3.12, 1.36 2.78, 1.62 2.47 C1.88 2.17, 2.17 1.88, 2.47 1.62 C2.78 1.36, 3.12 1.13, 3.46 0.93 C3.81 0.73, 4.18 0.55, 4.56 0.42 C4.93 0.28, 5.33 0.17, 5.72 0.11 C6.12 0.04, 6.53 0, 6.93 0 C7.33 0, 7.73 0.04, 8.13 0.11 C8.52 0.17, 8.92 0.28, 9.3 0.42 C9.67 0.55, 10.04 0.73, 10.39 0.93 C10.74 1.13, 11.07 1.36, 11.38 1.62 C11.69 1.88, 11.97 2.17, 12.23 2.47 C12.49 2.78, 12.72 3.12, 12.92 3.46 C13.13 3.81, 13.3 4.18, 13.44 4.56 C13.57 4.93, 13.68 5.33, 13.75 5.72 C13.82 6.12, 13.84 6.73, 13.85 6.93 C13.87 7.13, 13.87 6.73, 13.85 6.93" stroke="transparent" stroke-width="4" fill="none"></path></g><g stroke-linecap="round" transform="translate(42.07270786505478 13.718920227085619) rotate(187.87299598606762 6.616731365064197 6.61673136506397)"><path d="M13.23 6.62 C13.23 7, 13.2 7.39, 13.13 7.77 C13.07 8.14, 12.97 8.52, 12.83 8.88 C12.7 9.24, 12.54 9.59, 12.35 9.93 C12.16 10.26, 11.93 10.58, 11.69 10.87 C11.44 11.16, 11.16 11.44, 10.87 11.69 C10.58 11.93, 10.26 12.16, 9.93 12.35 C9.59 12.54, 9.24 12.7, 8.88 12.83 C8.52 12.97, 8.14 13.07, 7.77 13.13 C7.39 13.2, 7 13.23, 6.62 13.23 C6.23 13.23, 5.84 13.2, 5.47 13.13 C5.09 13.07, 4.71 12.97, 4.35 12.83 C3.99 12.7, 3.64 12.54, 3.31 12.35 C2.98 12.16, 2.66 11.93, 2.36 11.69 C2.07 11.44, 1.79 11.16, 1.55 10.87 C1.3 10.58, 1.08 10.26, 0.89 9.93 C0.69 9.59, 0.53 9.24, 0.4 8.88 C0.27 8.52, 0.17 8.14, 0.1 7.77 C0.03 7.39, 0 7, 0 6.62 C0 6.23, 0.03 5.84, 0.1 5.47 C0.17 5.09, 0.27 4.71, 0.4 4.35 C0.53 3.99, 0.69 3.64, 0.89 3.31 C1.08 2.98, 1.3 2.66, 1.55 2.36 C1.79 2.07, 2.07 1.79, 2.36 1.55 C2.66 1.3, 2.98 1.08, 3.31 0.89 C3.64 0.69, 3.99 0.53, 4.35 0.4 C4.71 0.27, 5.09 0.17, 5.47 0.1 C5.84 0.03, 6.23 0, 6.62 0 C7 0, 7.39 0.03, 7.77 0.1 C8.14 0.17, 8.52 0.27, 8.88 0.4 C9.24 0.53, 9.59 0.69, 9.93 0.89 C10.26 1.08, 10.58 1.3, 10.87 1.55 C11.16 1.79, 11.44 2.07, 11.69 2.36 C11.93 2.66, 12.16 2.98, 12.35 3.31 C12.54 3.64, 12.7 3.99, 12.83 4.35 C12.97 4.71, 13.07 5.09, 13.13 5.47 C13.2 5.84, 13.22 6.43, 13.23 6.62 C13.25 6.81, 13.25 6.43, 13.23 6.62" stroke="none" stroke-width="0" fill="#343a40"></path><path d="M13.23 6.62 C13.23 7, 13.2 7.39, 13.13 7.77 C13.07 8.14, 12.97 8.52, 12.83 8.88 C12.7 9.24, 12.54 9.59, 12.35 9.93 C12.16 10.26, 11.93 10.58, 11.69 10.87 C11.44 11.16, 11.16 11.44, 10.87 11.69 C10.58 11.93, 10.26 12.16, 9.93 12.35 C9.59 12.54, 9.24 12.7, 8.88 12.83 C8.52 12.97, 8.14 13.07, 7.77 13.13 C7.39 13.2, 7 13.23, 6.62 13.23 C6.23 13.23, 5.84 13.2, 5.47 13.13 C5.09 13.07, 4.71 12.97, 4.35 12.83 C3.99 12.7, 3.64 12.54, 3.31 12.35 C2.98 12.16, 2.66 11.93, 2.36 11.69 C2.07 11.44, 1.79 11.16, 1.55 10.87 C1.3 10.58, 1.08 10.26, 0.89 9.93 C0.69 9.59, 0.53 9.24, 0.4 8.88 C0.27 8.52, 0.17 8.14, 0.1 7.77 C0.03 7.39, 0 7, 0 6.62 C0 6.23, 0.03 5.84, 0.1 5.47 C0.17 5.09, 0.27 4.71, 0.4 4.35 C0.53 3.99, 0.69 3.64, 0.89 3.31 C1.08 2.98, 1.3 2.66, 1.55 2.36 C1.79 2.07, 2.07 1.79, 2.36 1.55 C2.66 1.3, 2.98 1.08, 3.31 0.89 C3.64 0.69, 3.99 0.53, 4.35 0.4 C4.71 0.27, 5.09 0.17, 5.47 0.1 C5.84 0.03, 6.23 0, 6.62 0 C7 0, 7.39 0.03, 7.77 0.1 C8.14 0.17, 8.52 0.27, 8.88 0.4 C9.24 0.53, 9.59 0.69, 9.93 0.89 C10.26 1.08, 10.58 1.3, 10.87 1.55 C11.16 1.79, 11.44 2.07, 11.69 2.36 C11.93 2.66, 12.16 2.98, 12.35 3.31 C12.54 3.64, 12.7 3.99, 12.83 4.35 C12.97 4.71, 13.07 5.09, 13.13 5.47 C13.2 5.84, 13.22 6.43, 13.23 6.62 C13.25 6.81, 13.25 6.43, 13.23 6.62" stroke="transparent" stroke-width="4" fill="none"></path></g><g stroke-linecap="round" transform="translate(52.51427009244162 17.90999662878312) rotate(187.87299598606762 3.8086872327512538 3.8086872327512538)"><path d="M7.62 3.81 C7.62 4.03, 7.6 4.25, 7.56 4.47 C7.52 4.69, 7.46 4.9, 7.39 5.11 C7.31 5.32, 7.22 5.52, 7.11 5.71 C7 5.9, 6.87 6.09, 6.73 6.26 C6.58 6.43, 6.43 6.58, 6.26 6.73 C6.09 6.87, 5.9 7, 5.71 7.11 C5.52 7.22, 5.32 7.31, 5.11 7.39 C4.9 7.46, 4.69 7.52, 4.47 7.56 C4.25 7.6, 4.03 7.62, 3.81 7.62 C3.59 7.62, 3.36 7.6, 3.15 7.56 C2.93 7.52, 2.71 7.46, 2.51 7.39 C2.3 7.31, 2.1 7.22, 1.9 7.11 C1.71 7, 1.53 6.87, 1.36 6.73 C1.19 6.58, 1.03 6.43, 0.89 6.26 C0.75 6.09, 0.62 5.9, 0.51 5.71 C0.4 5.52, 0.31 5.32, 0.23 5.11 C0.15 4.9, 0.1 4.69, 0.06 4.47 C0.02 4.25, 0 4.03, 0 3.81 C0 3.59, 0.02 3.36, 0.06 3.15 C0.1 2.93, 0.15 2.71, 0.23 2.51 C0.31 2.3, 0.4 2.1, 0.51 1.9 C0.62 1.71, 0.75 1.53, 0.89 1.36 C1.03 1.19, 1.19 1.03, 1.36 0.89 C1.53 0.75, 1.71 0.62, 1.9 0.51 C2.1 0.4, 2.3 0.31, 2.51 0.23 C2.71 0.15, 2.93 0.1, 3.15 0.06 C3.36 0.02, 3.59 0, 3.81 0 C4.03 0, 4.25 0.02, 4.47 0.06 C4.69 0.1, 4.9 0.15, 5.11 0.23 C5.32 0.31, 5.52 0.4, 5.71 0.51 C5.9 0.62, 6.09 0.75, 6.26 0.89 C6.43 1.03, 6.58 1.19, 6.73 1.36 C6.87 1.53, 7 1.71, 7.11 1.9 C7.22 2.1, 7.31 2.3, 7.39 2.51 C7.46 2.71, 7.52 2.93, 7.56 3.15 C7.6 3.36, 7.61 3.7, 7.62 3.81 C7.63 3.92, 7.63 3.7, 7.62 3.81" stroke="none" stroke-width="0" fill="#eebefa"></path><path d="M7.62 3.81 C7.62 4.03, 7.6 4.25, 7.56 4.47 C7.52 4.69, 7.46 4.9, 7.39 5.11 C7.31 5.32, 7.22 5.52, 7.11 5.71 C7 5.9, 6.87 6.09, 6.73 6.26 C6.58 6.43, 6.43 6.58, 6.26 6.73 C6.09 6.87, 5.9 7, 5.71 7.11 C5.52 7.22, 5.32 7.31, 5.11 7.39 C4.9 7.46, 4.69 7.52, 4.47 7.56 C4.25 7.6, 4.03 7.62, 3.81 7.62 C3.59 7.62, 3.36 7.6, 3.15 7.56 C2.93 7.52, 2.71 7.46, 2.51 7.39 C2.3 7.31, 2.1 7.22, 1.9 7.11 C1.71 7, 1.53 6.87, 1.36 6.73 C1.19 6.58, 1.03 6.43, 0.89 6.26 C0.75 6.09, 0.62 5.9, 0.51 5.71 C0.4 5.52, 0.31 5.32, 0.23 5.11 C0.15 4.9, 0.1 4.69, 0.06 4.47 C0.02 4.25, 0 4.03, 0 3.81 C0 3.59, 0.02 3.36, 0.06 3.15 C0.1 2.93, 0.15 2.71, 0.23 2.51 C0.31 2.3, 0.4 2.1, 0.51 1.9 C0.62 1.71, 0.75 1.53, 0.89 1.36 C1.03 1.19, 1.19 1.03, 1.36 0.89 C1.53 0.75, 1.71 0.62, 1.9 0.51 C2.1 0.4, 2.3 0.31, 2.51 0.23 C2.71 0.15, 2.93 0.1, 3.15 0.06 C3.36 0.02, 3.59 0, 3.81 0 C4.03 0, 4.25 0.02, 4.47 0.06 C4.69 0.1, 4.9 0.15, 5.11 0.23 C5.32 0.31, 5.52 0.4, 5.71 0.51 C5.9 0.62, 6.09 0.75, 6.26 0.89 C6.43 1.03, 6.58 1.19, 6.73 1.36 C6.87 1.53, 7 1.71, 7.11 1.9 C7.22 2.1, 7.31 2.3, 7.39 2.51 C7.46 2.71, 7.52 2.93, 7.56 3.15 C7.6 3.36, 7.61 3.7, 7.62 3.81 C7.63 3.92, 7.63 3.7, 7.62 3.81" stroke="transparent" stroke-width="4" fill="none"></path></g><g stroke-linecap="round" transform="translate(36.382154595216434 17.13199766881553) rotate(266.72510793710813 4.104521717463513 4.104521717463285)"><path d="M8.21 4.1 C8.21 4.34, 8.19 4.58, 8.15 4.82 C8.11 5.05, 8.04 5.29, 7.96 5.51 C7.88 5.73, 7.78 5.95, 7.66 6.16 C7.54 6.36, 7.4 6.56, 7.25 6.74 C7.1 6.92, 6.92 7.1, 6.74 7.25 C6.56 7.4, 6.36 7.54, 6.16 7.66 C5.95 7.78, 5.73 7.88, 5.51 7.96 C5.29 8.04, 5.05 8.11, 4.82 8.15 C4.58 8.19, 4.34 8.21, 4.1 8.21 C3.87 8.21, 3.63 8.19, 3.39 8.15 C3.16 8.11, 2.92 8.04, 2.7 7.96 C2.48 7.88, 2.26 7.78, 2.05 7.66 C1.85 7.54, 1.65 7.4, 1.47 7.25 C1.28 7.1, 1.11 6.92, 0.96 6.74 C0.81 6.56, 0.67 6.36, 0.55 6.16 C0.43 5.95, 0.33 5.73, 0.25 5.51 C0.17 5.29, 0.1 5.05, 0.06 4.82 C0.02 4.58, 0 4.34, 0 4.1 C0 3.87, 0.02 3.63, 0.06 3.39 C0.1 3.16, 0.17 2.92, 0.25 2.7 C0.33 2.48, 0.43 2.26, 0.55 2.05 C0.67 1.85, 0.81 1.65, 0.96 1.47 C1.11 1.28, 1.28 1.11, 1.47 0.96 C1.65 0.81, 1.85 0.67, 2.05 0.55 C2.26 0.43, 2.48 0.33, 2.7 0.25 C2.92 0.17, 3.16 0.1, 3.39 0.06 C3.63 0.02, 3.87 0, 4.1 0 C4.34 0, 4.58 0.02, 4.82 0.06 C5.05 0.1, 5.29 0.17, 5.51 0.25 C5.73 0.33, 5.95 0.43, 6.16 0.55 C6.36 0.67, 6.56 0.81, 6.74 0.96 C6.92 1.11, 7.1 1.28, 7.25 1.47 C7.4 1.65, 7.54 1.85, 7.66 2.05 C7.78 2.26, 7.88 2.48, 7.96 2.7 C8.04 2.92, 8.11 3.16, 8.15 3.39 C8.19 3.63, 8.2 3.99, 8.21 4.1 C8.22 4.22, 8.22 3.99, 8.21 4.1" stroke="none" stroke-width="0" fill="#eebefa"></path><path d="M8.21 4.1 C8.21 4.34, 8.19 4.58, 8.15 4.82 C8.11 5.05, 8.04 5.29, 7.96 5.51 C7.88 5.73, 7.78 5.95, 7.66 6.16 C7.54 6.36, 7.4 6.56, 7.25 6.74 C7.1 6.92, 6.92 7.1, 6.74 7.25 C6.56 7.4, 6.36 7.54, 6.16 7.66 C5.95 7.78, 5.73 7.88, 5.51 7.96 C5.29 8.04, 5.05 8.11, 4.82 8.15 C4.58 8.19, 4.34 8.21, 4.1 8.21 C3.87 8.21, 3.63 8.19, 3.39 8.15 C3.16 8.11, 2.92 8.04, 2.7 7.96 C2.48 7.88, 2.26 7.78, 2.05 7.66 C1.85 7.54, 1.65 7.4, 1.47 7.25 C1.28 7.1, 1.11 6.92, 0.96 6.74 C0.81 6.56, 0.67 6.36, 0.55 6.16 C0.43 5.95, 0.33 5.73, 0.25 5.51 C0.17 5.29, 0.1 5.05, 0.06 4.82 C0.02 4.58, 0 4.34, 0 4.1 C0 3.87, 0.02 3.63, 0.06 3.39 C0.1 3.16, 0.17 2.92, 0.25 2.7 C0.33 2.48, 0.43 2.26, 0.55 2.05 C0.67 1.85, 0.81 1.65, 0.96 1.47 C1.11 1.28, 1.28 1.11, 1.47 0.96 C1.65 0.81, 1.85 0.67, 2.05 0.55 C2.26 0.43, 2.48 0.33, 2.7 0.25 C2.92 0.17, 3.16 0.1, 3.39 0.06 C3.63 0.02, 3.87 0, 4.1 0 C4.34 0, 4.58 0.02, 4.82 0.06 C5.05 0.1, 5.29 0.17, 5.51 0.25 C5.73 0.33, 5.95 0.43, 6.16 0.55 C6.36 0.67, 6.56 0.81, 6.74 0.96 C6.92 1.11, 7.1 1.28, 7.25 1.47 C7.4 1.65, 7.54 1.85, 7.66 2.05 C7.78 2.26, 7.88 2.48, 7.96 2.7 C8.04 2.92, 8.11 3.16, 8.15 3.39 C8.19 3.63, 8.2 3.99, 8.21 4.1 C8.22 4.22, 8.22 3.99, 8.21 4.1" stroke="transparent" stroke-width="4" fill="none"></path></g><g stroke-linecap="round" transform="translate(42.916561521474705 18.93126747882161) rotate(187.87299598606762 5.082894775428713 5.08289477542894)"><path d="M10.17 5.08 C10.17 5.38, 10.14 5.68, 10.09 5.97 C10.04 6.26, 9.96 6.54, 9.86 6.82 C9.76 7.1, 9.63 7.37, 9.48 7.62 C9.34 7.88, 9.17 8.12, 8.98 8.35 C8.79 8.58, 8.58 8.79, 8.35 8.98 C8.12 9.17, 7.88 9.34, 7.62 9.48 C7.37 9.63, 7.1 9.76, 6.82 9.86 C6.54 9.96, 6.26 10.04, 5.97 10.09 C5.68 10.14, 5.38 10.17, 5.08 10.17 C4.79 10.17, 4.49 10.14, 4.2 10.09 C3.91 10.04, 3.62 9.96, 3.34 9.86 C3.07 9.76, 2.8 9.63, 2.54 9.48 C2.29 9.34, 2.04 9.17, 1.82 8.98 C1.59 8.79, 1.38 8.58, 1.19 8.35 C1 8.12, 0.83 7.88, 0.68 7.62 C0.53 7.37, 0.41 7.1, 0.31 6.82 C0.21 6.54, 0.13 6.26, 0.08 5.97 C0.03 5.68, 0 5.38, 0 5.08 C0 4.79, 0.03 4.49, 0.08 4.2 C0.13 3.91, 0.21 3.62, 0.31 3.34 C0.41 3.07, 0.53 2.8, 0.68 2.54 C0.83 2.29, 1 2.04, 1.19 1.82 C1.38 1.59, 1.59 1.38, 1.82 1.19 C2.04 1, 2.29 0.83, 2.54 0.68 C2.8 0.53, 3.07 0.41, 3.34 0.31 C3.62 0.21, 3.91 0.13, 4.2 0.08 C4.49 0.03, 4.79 0, 5.08 0 C5.38 0, 5.68 0.03, 5.97 0.08 C6.26 0.13, 6.54 0.21, 6.82 0.31 C7.1 0.41, 7.37 0.53, 7.62 0.68 C7.88 0.83, 8.12 1, 8.35 1.19 C8.58 1.38, 8.79 1.59, 8.98 1.82 C9.17 2.04, 9.34 2.29, 9.48 2.54 C9.63 2.8, 9.76 3.07, 9.86 3.34 C9.96 3.62, 10.04 3.91, 10.09 4.2 C10.14 4.49, 10.15 4.94, 10.17 5.08 C10.18 5.23, 10.18 4.94, 10.17 5.08" stroke="none" stroke-width="0" fill="#eebefa"></path><path d="M10.17 5.08 C10.17 5.38, 10.14 5.68, 10.09 5.97 C10.04 6.26, 9.96 6.54, 9.86 6.82 C9.76 7.1, 9.63 7.37, 9.48 7.62 C9.34 7.88, 9.17 8.12, 8.98 8.35 C8.79 8.58, 8.58 8.79, 8.35 8.98 C8.12 9.17, 7.88 9.34, 7.62 9.48 C7.37 9.63, 7.1 9.76, 6.82 9.86 C6.54 9.96, 6.26 10.04, 5.97 10.09 C5.68 10.14, 5.38 10.17, 5.08 10.17 C4.79 10.17, 4.49 10.14, 4.2 10.09 C3.91 10.04, 3.62 9.96, 3.34 9.86 C3.07 9.76, 2.8 9.63, 2.54 9.48 C2.29 9.34, 2.04 9.17, 1.82 8.98 C1.59 8.79, 1.38 8.58, 1.19 8.35 C1 8.12, 0.83 7.88, 0.68 7.62 C0.53 7.37, 0.41 7.1, 0.31 6.82 C0.21 6.54, 0.13 6.26, 0.08 5.97 C0.03 5.68, 0 5.38, 0 5.08 C0 4.79, 0.03 4.49, 0.08 4.2 C0.13 3.91, 0.21 3.62, 0.31 3.34 C0.41 3.07, 0.53 2.8, 0.68 2.54 C0.83 2.29, 1 2.04, 1.19 1.82 C1.38 1.59, 1.59 1.38, 1.82 1.19 C2.04 1, 2.29 0.83, 2.54 0.68 C2.8 0.53, 3.07 0.41, 3.34 0.31 C3.62 0.21, 3.91 0.13, 4.2 0.08 C4.49 0.03, 4.79 0, 5.08 0 C5.38 0, 5.68 0.03, 5.97 0.08 C6.26 0.13, 6.54 0.21, 6.82 0.31 C7.1 0.41, 7.37 0.53, 7.62 0.68 C7.88 0.83, 8.12 1, 8.35 1.19 C8.58 1.38, 8.79 1.59, 8.98 1.82 C9.17 2.04, 9.34 2.29, 9.48 2.54 C9.63 2.8, 9.76 3.07, 9.86 3.34 C9.96 3.62, 10.04 3.91, 10.09 4.2 C10.14 4.49, 10.15 4.94, 10.17 5.08 C10.18 5.23, 10.18 4.94, 10.17 5.08" stroke="transparent" stroke-width="4" fill="none"></path></g><g stroke-linecap="round" transform="translate(43.492528339363616 15.138741034856139) rotate(187.87299598606762 5.196910682938096 5.196910682938324)"><path d="M10.39 5.2 C10.39 5.5, 10.37 5.8, 10.31 6.1 C10.26 6.4, 10.18 6.69, 10.08 6.97 C9.98 7.26, 9.85 7.53, 9.7 7.8 C9.55 8.06, 9.37 8.31, 9.18 8.54 C8.98 8.77, 8.77 8.98, 8.54 9.18 C8.31 9.37, 8.06 9.55, 7.8 9.7 C7.53 9.85, 7.26 9.98, 6.97 10.08 C6.69 10.18, 6.4 10.26, 6.1 10.31 C5.8 10.37, 5.5 10.39, 5.2 10.39 C4.9 10.39, 4.59 10.37, 4.29 10.31 C4 10.26, 3.7 10.18, 3.42 10.08 C3.14 9.98, 2.86 9.85, 2.6 9.7 C2.34 9.55, 2.09 9.37, 1.86 9.18 C1.63 8.98, 1.41 8.77, 1.22 8.54 C1.02 8.31, 0.85 8.06, 0.7 7.8 C0.55 7.53, 0.42 7.26, 0.31 6.97 C0.21 6.69, 0.13 6.4, 0.08 6.1 C0.03 5.8, 0 5.5, 0 5.2 C0 4.9, 0.03 4.59, 0.08 4.29 C0.13 4, 0.21 3.7, 0.31 3.42 C0.42 3.14, 0.55 2.86, 0.7 2.6 C0.85 2.34, 1.02 2.09, 1.22 1.86 C1.41 1.63, 1.63 1.41, 1.86 1.22 C2.09 1.02, 2.34 0.85, 2.6 0.7 C2.86 0.55, 3.14 0.42, 3.42 0.31 C3.7 0.21, 4 0.13, 4.29 0.08 C4.59 0.03, 4.9 0, 5.2 0 C5.5 0, 5.8 0.03, 6.1 0.08 C6.4 0.13, 6.69 0.21, 6.97 0.31 C7.26 0.42, 7.53 0.55, 7.8 0.7 C8.06 0.85, 8.31 1.02, 8.54 1.22 C8.77 1.41, 8.98 1.63, 9.18 1.86 C9.37 2.09, 9.55 2.34, 9.7 2.6 C9.85 2.86, 9.98 3.14, 10.08 3.42 C10.18 3.7, 10.26 4, 10.31 4.29 C10.37 4.59, 10.38 5.05, 10.39 5.2 C10.41 5.35, 10.41 5.05, 10.39 5.2" stroke="none" stroke-width="0" fill="#eebefa"></path><path d="M10.39 5.2 C10.39 5.5, 10.37 5.8, 10.31 6.1 C10.26 6.4, 10.18 6.69, 10.08 6.97 C9.98 7.26, 9.85 7.53, 9.7 7.8 C9.55 8.06, 9.37 8.31, 9.18 8.54 C8.98 8.77, 8.77 8.98, 8.54 9.18 C8.31 9.37, 8.06 9.55, 7.8 9.7 C7.53 9.85, 7.26 9.98, 6.97 10.08 C6.69 10.18, 6.4 10.26, 6.1 10.31 C5.8 10.37, 5.5 10.39, 5.2 10.39 C4.9 10.39, 4.59 10.37, 4.29 10.31 C4 10.26, 3.7 10.18, 3.42 10.08 C3.14 9.98, 2.86 9.85, 2.6 9.7 C2.34 9.55, 2.09 9.37, 1.86 9.18 C1.63 8.98, 1.41 8.77, 1.22 8.54 C1.02 8.31, 0.85 8.06, 0.7 7.8 C0.55 7.53, 0.42 7.26, 0.31 6.97 C0.21 6.69, 0.13 6.4, 0.08 6.1 C0.03 5.8, 0 5.5, 0 5.2 C0 4.9, 0.03 4.59, 0.08 4.29 C0.13 4, 0.21 3.7, 0.31 3.42 C0.42 3.14, 0.55 2.86, 0.7 2.6 C0.85 2.34, 1.02 2.09, 1.22 1.86 C1.41 1.63, 1.63 1.41, 1.86 1.22 C2.09 1.02, 2.34 0.85, 2.6 0.7 C2.86 0.55, 3.14 0.42, 3.42 0.31 C3.7 0.21, 4 0.13, 4.29 0.08 C4.59 0.03, 4.9 0, 5.2 0 C5.5 0, 5.8 0.03, 6.1 0.08 C6.4 0.13, 6.69 0.21, 6.97 0.31 C7.26 0.42, 7.53 0.55, 7.8 0.7 C8.06 0.85, 8.31 1.02, 8.54 1.22 C8.77 1.41, 8.98 1.63, 9.18 1.86 C9.37 2.09, 9.55 2.34, 9.7 2.6 C9.85 2.86, 9.98 3.14, 10.08 3.42 C10.18 3.7, 10.26 4, 10.31 4.29 C10.37 4.59, 10.38 5.05, 10.39 5.2 C10.41 5.35, 10.41 5.05, 10.39 5.2" stroke="transparent" stroke-width="4" fill="none"></path></g><g stroke-linecap="round" transform="translate(23.710591732520243 40.21609071158855) rotate(224.99999999999986 7.329401299497022 3.1121899749832664)"><path d="M1.56 0 C5.2 0, 8.85 0, 13.1 0 C14.14 0, 14.66 0.52, 14.66 1.56 C14.66 2.2, 14.66 2.85, 14.66 4.67 C14.66 5.71, 14.14 6.22, 13.1 6.22 C9.77 6.22, 6.43 6.22, 1.56 6.22 C0.52 6.22, 0 5.71, 0 4.67 C0 3.86, 0 3.05, 0 1.56 C0 0.52, 0.52 0, 1.56 0" stroke="none" stroke-width="0" fill="#343a40"></path><path d="M1.56 0 C5.37 0, 9.19 0, 13.1 0 M1.56 0 C5.46 0, 9.36 0, 13.1 0 M13.1 0 C14.14 0, 14.66 0.52, 14.66 1.56 M13.1 0 C14.14 0, 14.66 0.52, 14.66 1.56 M14.66 1.56 C14.66 2.56, 14.66 3.57, 14.66 4.67 M14.66 1.56 C14.66 2.41, 14.66 3.27, 14.66 4.67 M14.66 4.67 C14.66 5.71, 14.14 6.22, 13.1 6.22 M14.66 4.67 C14.66 5.71, 14.14 6.22, 13.1 6.22 M13.1 6.22 C9.96 6.22, 6.81 6.22, 1.56 6.22 M13.1 6.22 C9.6 6.22, 6.09 6.22, 1.56 6.22 M1.56 6.22 C0.52 6.22, 0 5.71, 0 4.67 M1.56 6.22 C0.52 6.22, 0 5.71, 0 4.67 M0 4.67 C0 3.58, 0 2.5, 0 1.56 M0 4.67 C0 3.8, 0 2.92, 0 1.56 M0 1.56 C0 0.52, 0.52 0, 1.56 0 M0 1.56 C0 0.52, 0.52 0, 1.56 0" stroke="transparent" stroke-width="4" fill="none"></path></g><g stroke-linecap="round" transform="translate(23.76279963789193 36.05104770151593) rotate(224.99999999999986 3.098436782172257 3.09843678217203)"><path d="M6.2 3.1 C6.2 3.28, 6.18 3.46, 6.15 3.64 C6.12 3.81, 6.07 3.99, 6.01 4.16 C5.95 4.33, 5.87 4.49, 5.78 4.65 C5.69 4.8, 5.59 4.95, 5.47 5.09 C5.36 5.23, 5.23 5.36, 5.09 5.47 C4.95 5.59, 4.8 5.69, 4.65 5.78 C4.49 5.87, 4.33 5.95, 4.16 6.01 C3.99 6.07, 3.81 6.12, 3.64 6.15 C3.46 6.18, 3.28 6.2, 3.1 6.2 C2.92 6.2, 2.74 6.18, 2.56 6.15 C2.38 6.12, 2.21 6.07, 2.04 6.01 C1.87 5.95, 1.7 5.87, 1.55 5.78 C1.39 5.69, 1.24 5.59, 1.11 5.47 C0.97 5.36, 0.84 5.23, 0.72 5.09 C0.61 4.95, 0.5 4.8, 0.42 4.65 C0.33 4.49, 0.25 4.33, 0.19 4.16 C0.13 3.99, 0.08 3.81, 0.05 3.64 C0.02 3.46, 0 3.28, 0 3.1 C0 2.92, 0.02 2.74, 0.05 2.56 C0.08 2.38, 0.13 2.21, 0.19 2.04 C0.25 1.87, 0.33 1.7, 0.42 1.55 C0.5 1.39, 0.61 1.24, 0.72 1.11 C0.84 0.97, 0.97 0.84, 1.11 0.72 C1.24 0.61, 1.39 0.5, 1.55 0.42 C1.7 0.33, 1.87 0.25, 2.04 0.19 C2.21 0.13, 2.38 0.08, 2.56 0.05 C2.74 0.02, 2.92 0, 3.1 0 C3.28 0, 3.46 0.02, 3.64 0.05 C3.81 0.08, 3.99 0.13, 4.16 0.19 C4.33 0.25, 4.49 0.33, 4.65 0.42 C4.8 0.5, 4.95 0.61, 5.09 0.72 C5.23 0.84, 5.36 0.97, 5.47 1.11 C5.59 1.24, 5.69 1.39, 5.78 1.55 C5.87 1.7, 5.95 1.87, 6.01 2.04 C6.07 2.21, 6.12 2.38, 6.15 2.56 C6.18 2.74, 6.19 3.01, 6.2 3.1 C6.2 3.19, 6.2 3.01, 6.2 3.1" stroke="none" stroke-width="0" fill="#343a40"></path><path d="M6.2 3.1 C6.2 3.28, 6.18 3.46, 6.15 3.64 C6.12 3.81, 6.07 3.99, 6.01 4.16 C5.95 4.33, 5.87 4.49, 5.78 4.65 C5.69 4.8, 5.59 4.95, 5.47 5.09 C5.36 5.23, 5.23 5.36, 5.09 5.47 C4.95 5.59, 4.8 5.69, 4.65 5.78 C4.49 5.87, 4.33 5.95, 4.16 6.01 C3.99 6.07, 3.81 6.12, 3.64 6.15 C3.46 6.18, 3.28 6.2, 3.1 6.2 C2.92 6.2, 2.74 6.18, 2.56 6.15 C2.38 6.12, 2.21 6.07, 2.04 6.01 C1.87 5.95, 1.7 5.87, 1.55 5.78 C1.39 5.69, 1.24 5.59, 1.11 5.47 C0.97 5.36, 0.84 5.23, 0.72 5.09 C0.61 4.95, 0.5 4.8, 0.42 4.65 C0.33 4.49, 0.25 4.33, 0.19 4.16 C0.13 3.99, 0.08 3.81, 0.05 3.64 C0.02 3.46, 0 3.28, 0 3.1 C0 2.92, 0.02 2.74, 0.05 2.56 C0.08 2.38, 0.13 2.21, 0.19 2.04 C0.25 1.87, 0.33 1.7, 0.42 1.55 C0.5 1.39, 0.61 1.24, 0.72 1.11 C0.84 0.97, 0.97 0.84, 1.11 0.72 C1.24 0.61, 1.39 0.5, 1.55 0.42 C1.7 0.33, 1.87 0.25, 2.04 0.19 C2.21 0.13, 2.38 0.08, 2.56 0.05 C2.74 0.02, 2.92 0, 3.1 0 C3.28 0, 3.46 0.02, 3.64 0.05 C3.81 0.08, 3.99 0.13, 4.16 0.19 C4.33 0.25, 4.49 0.33, 4.65 0.42 C4.8 0.5, 4.95 0.61, 5.09 0.72 C5.23 0.84, 5.36 0.97, 5.47 1.11 C5.59 1.24, 5.69 1.39, 5.78 1.55 C5.87 1.7, 5.95 1.87, 6.01 2.04 C6.07 2.21, 6.12 2.38, 6.15 2.56 C6.18 2.74, 6.19 3.01, 6.2 3.1 C6.2 3.19, 6.2 3.01, 6.2 3.1" stroke="transparent" stroke-width="2" fill="none"></path></g><g stroke-linecap="round" transform="translate(29.173946788947887 48.40315539346375) rotate(0 5.0680889246878 5.0680889246878)"><path d="M10.14 5.07 C10.14 5.36, 10.11 5.66, 10.06 5.95 C10.01 6.24, 9.93 6.53, 9.83 6.8 C9.73 7.08, 9.6 7.35, 9.46 7.6 C9.31 7.86, 9.14 8.1, 8.95 8.33 C8.76 8.55, 8.55 8.76, 8.33 8.95 C8.1 9.14, 7.86 9.31, 7.6 9.46 C7.35 9.6, 7.08 9.73, 6.8 9.83 C6.53 9.93, 6.24 10.01, 5.95 10.06 C5.66 10.11, 5.36 10.14, 5.07 10.14 C4.77 10.14, 4.48 10.11, 4.19 10.06 C3.9 10.01, 3.61 9.93, 3.33 9.83 C3.06 9.73, 2.79 9.6, 2.53 9.46 C2.28 9.31, 2.04 9.14, 1.81 8.95 C1.59 8.76, 1.37 8.55, 1.19 8.33 C1 8.1, 0.83 7.86, 0.68 7.6 C0.53 7.35, 0.41 7.08, 0.31 6.8 C0.21 6.53, 0.13 6.24, 0.08 5.95 C0.03 5.66, 0 5.36, 0 5.07 C0 4.77, 0.03 4.48, 0.08 4.19 C0.13 3.9, 0.21 3.61, 0.31 3.33 C0.41 3.06, 0.53 2.79, 0.68 2.53 C0.83 2.28, 1 2.04, 1.19 1.81 C1.37 1.59, 1.59 1.37, 1.81 1.19 C2.04 1, 2.28 0.83, 2.53 0.68 C2.79 0.53, 3.06 0.41, 3.33 0.31 C3.61 0.21, 3.9 0.13, 4.19 0.08 C4.48 0.03, 4.77 0, 5.07 0 C5.36 0, 5.66 0.03, 5.95 0.08 C6.24 0.13, 6.53 0.21, 6.8 0.31 C7.08 0.41, 7.35 0.53, 7.6 0.68 C7.86 0.83, 8.1 1, 8.33 1.19 C8.55 1.37, 8.76 1.59, 8.95 1.81 C9.14 2.04, 9.31 2.28, 9.46 2.53 C9.6 2.79, 9.73 3.06, 9.83 3.33 C9.93 3.61, 10.01 3.9, 10.06 4.19 C10.11 4.48, 10.12 4.92, 10.14 5.07 C10.15 5.21, 10.15 4.92, 10.14 5.07" stroke="none" stroke-width="0" fill="#f783ac"></path><path d="M10.14 5.07 C10.14 5.36, 10.11 5.66, 10.06 5.95 C10.01 6.24, 9.93 6.53, 9.83 6.8 C9.73 7.08, 9.6 7.35, 9.46 7.6 C9.31 7.86, 9.14 8.1, 8.95 8.33 C8.76 8.55, 8.55 8.76, 8.33 8.95 C8.1 9.14, 7.86 9.31, 7.6 9.46 C7.35 9.6, 7.08 9.73, 6.8 9.83 C6.53 9.93, 6.24 10.01, 5.95 10.06 C5.66 10.11, 5.36 10.14, 5.07 10.14 C4.77 10.14, 4.48 10.11, 4.19 10.06 C3.9 10.01, 3.61 9.93, 3.33 9.83 C3.06 9.73, 2.79 9.6, 2.53 9.46 C2.28 9.31, 2.04 9.14, 1.81 8.95 C1.59 8.76, 1.37 8.55, 1.19 8.33 C1 8.1, 0.83 7.86, 0.68 7.6 C0.53 7.35, 0.41 7.08, 0.31 6.8 C0.21 6.53, 0.13 6.24, 0.08 5.95 C0.03 5.66, 0 5.36, 0 5.07 C0 4.77, 0.03 4.48, 0.08 4.19 C0.13 3.9, 0.21 3.61, 0.31 3.33 C0.41 3.06, 0.53 2.79, 0.68 2.53 C0.83 2.28, 1 2.04, 1.19 1.81 C1.37 1.59, 1.59 1.37, 1.81 1.19 C2.04 1, 2.28 0.83, 2.53 0.68 C2.79 0.53, 3.06 0.41, 3.33 0.31 C3.61 0.21, 3.9 0.13, 4.19 0.08 C4.48 0.03, 4.77 0, 5.07 0 C5.36 0, 5.66 0.03, 5.95 0.08 C6.24 0.13, 6.53 0.21, 6.8 0.31 C7.08 0.41, 7.35 0.53, 7.6 0.68 C7.86 0.83, 8.1 1, 8.33 1.19 C8.55 1.37, 8.76 1.59, 8.95 1.81 C9.14 2.04, 9.31 2.28, 9.46 2.53 C9.6 2.79, 9.73 3.06, 9.83 3.33 C9.93 3.61, 10.01 3.9, 10.06 4.19 C10.11 4.48, 10.12 4.92, 10.14 5.07 C10.15 5.21, 10.15 4.92, 10.14 5.07" stroke="transparent" stroke-width="2" fill="none"></path></g><g stroke-linecap="round" transform="translate(27.320096660476793 38.93759266010238) rotate(269.9999999999999 6.974929731991097 7.768276566166605)"><path d="M3.49 0 C4.95 0, 6.42 0, 10.46 0 C12.79 0, 13.95 1.16, 13.95 3.49 C13.95 5.26, 13.95 7.02, 13.95 12.05 C13.95 14.37, 12.79 15.54, 10.46 15.54 C8.28 15.54, 6.09 15.54, 3.49 15.54 C1.16 15.54, 0 14.37, 0 12.05 C0 10.05, 0 8.05, 0 3.49 C0 1.16, 1.16 0, 3.49 0" stroke="none" stroke-width="0" fill="#343a40"></path><path d="M3.49 0 C4.98 0, 6.46 0, 10.46 0 M3.49 0 C4.97 0, 6.46 0, 10.46 0 M10.46 0 C12.79 0, 13.95 1.16, 13.95 3.49 M10.46 0 C12.79 0, 13.95 1.16, 13.95 3.49 M13.95 3.49 C13.95 5.94, 13.95 8.4, 13.95 12.05 M13.95 3.49 C13.95 5.74, 13.95 7.98, 13.95 12.05 M13.95 12.05 C13.95 14.37, 12.79 15.54, 10.46 15.54 M13.95 12.05 C13.95 14.37, 12.79 15.54, 10.46 15.54 M10.46 15.54 C8.37 15.54, 6.28 15.54, 3.49 15.54 M10.46 15.54 C8.82 15.54, 7.17 15.54, 3.49 15.54 M3.49 15.54 C1.16 15.54, 0 14.37, 0 12.05 M3.49 15.54 C1.16 15.54, 0 14.37, 0 12.05 M0 12.05 C0 9.16, 0 6.27, 0 3.49 M0 12.05 C0 10.31, 0 8.58, 0 3.49 M0 3.49 C0 1.16, 1.16 0, 3.49 0 M0 3.49 C0 1.16, 1.16 0, 3.49 0" stroke="transparent" stroke-width="4" fill="none"></path></g><g stroke-linecap="round" transform="translate(26.56114877988057 35.54072492504747) rotate(269.9999999999999 7.733947490409491 7.733947490409264)"><path d="M15.47 7.73 C15.47 8.18, 15.43 8.64, 15.35 9.08 C15.27 9.52, 15.15 9.96, 15 10.38 C14.85 10.8, 14.66 11.21, 14.43 11.6 C14.21 11.99, 13.95 12.36, 13.66 12.71 C13.37 13.05, 13.05 13.37, 12.71 13.66 C12.36 13.95, 11.99 14.21, 11.6 14.43 C11.21 14.66, 10.8 14.85, 10.38 15 C9.96 15.15, 9.52 15.27, 9.08 15.35 C8.64 15.43, 8.18 15.47, 7.73 15.47 C7.29 15.47, 6.83 15.43, 6.39 15.35 C5.95 15.27, 5.51 15.15, 5.09 15 C4.67 14.85, 4.25 14.66, 3.87 14.43 C3.48 14.21, 3.11 13.95, 2.76 13.66 C2.42 13.37, 2.1 13.05, 1.81 12.71 C1.52 12.36, 1.26 11.99, 1.04 11.6 C0.81 11.21, 0.62 10.8, 0.47 10.38 C0.31 9.96, 0.2 9.52, 0.12 9.08 C0.04 8.64, 0 8.18, 0 7.73 C0 7.29, 0.04 6.83, 0.12 6.39 C0.2 5.95, 0.31 5.51, 0.47 5.09 C0.62 4.67, 0.81 4.25, 1.04 3.87 C1.26 3.48, 1.52 3.11, 1.81 2.76 C2.1 2.42, 2.42 2.1, 2.76 1.81 C3.11 1.52, 3.48 1.26, 3.87 1.04 C4.25 0.81, 4.67 0.62, 5.09 0.47 C5.51 0.31, 5.95 0.2, 6.39 0.12 C6.83 0.04, 7.29 0, 7.73 0 C8.18 0, 8.64 0.04, 9.08 0.12 C9.52 0.2, 9.96 0.31, 10.38 0.47 C10.8 0.62, 11.21 0.81, 11.6 1.04 C11.99 1.26, 12.36 1.52, 12.71 1.81 C13.05 2.1, 13.37 2.42, 13.66 2.76 C13.95 3.11, 14.21 3.48, 14.43 3.87 C14.66 4.25, 14.85 4.67, 15 5.09 C15.15 5.51, 15.27 5.95, 15.35 6.39 C15.43 6.83, 15.45 7.51, 15.47 7.73 C15.49 7.96, 15.49 7.51, 15.47 7.73" stroke="none" stroke-width="0" fill="#343a40"></path><path d="M15.47 7.73 C15.47 8.18, 15.43 8.64, 15.35 9.08 C15.27 9.52, 15.15 9.96, 15 10.38 C14.85 10.8, 14.66 11.21, 14.43 11.6 C14.21 11.99, 13.95 12.36, 13.66 12.71 C13.37 13.05, 13.05 13.37, 12.71 13.66 C12.36 13.95, 11.99 14.21, 11.6 14.43 C11.21 14.66, 10.8 14.85, 10.38 15 C9.96 15.15, 9.52 15.27, 9.08 15.35 C8.64 15.43, 8.18 15.47, 7.73 15.47 C7.29 15.47, 6.83 15.43, 6.39 15.35 C5.95 15.27, 5.51 15.15, 5.09 15 C4.67 14.85, 4.25 14.66, 3.87 14.43 C3.48 14.21, 3.11 13.95, 2.76 13.66 C2.42 13.37, 2.1 13.05, 1.81 12.71 C1.52 12.36, 1.26 11.99, 1.04 11.6 C0.81 11.21, 0.62 10.8, 0.47 10.38 C0.31 9.96, 0.2 9.52, 0.12 9.08 C0.04 8.64, 0 8.18, 0 7.73 C0 7.29, 0.04 6.83, 0.12 6.39 C0.2 5.95, 0.31 5.51, 0.47 5.09 C0.62 4.67, 0.81 4.25, 1.04 3.87 C1.26 3.48, 1.52 3.11, 1.81 2.76 C2.1 2.42, 2.42 2.1, 2.76 1.81 C3.11 1.52, 3.48 1.26, 3.87 1.04 C4.25 0.81, 4.67 0.62, 5.09 0.47 C5.51 0.31, 5.95 0.2, 6.39 0.12 C6.83 0.04, 7.29 0, 7.73 0 C8.18 0, 8.64 0.04, 9.08 0.12 C9.52 0.2, 9.96 0.31, 10.38 0.47 C10.8 0.62, 11.21 0.81, 11.6 1.04 C11.99 1.26, 12.36 1.52, 12.71 1.81 C13.05 2.1, 13.37 2.42, 13.66 2.76 C13.95 3.11, 14.21 3.48, 14.43 3.87 C14.66 4.25, 14.85 4.67, 15 5.09 C15.15 5.51, 15.27 5.95, 15.35 6.39 C15.43 6.83, 15.45 7.51, 15.47 7.73 C15.49 7.96, 15.49 7.51, 15.47 7.73" stroke="transparent" stroke-width="2" fill="none"></path></g><g stroke-linecap="round" transform="translate(31.5370607312625 42.61392530984631) rotate(0 2.7389095661287683 2.738909566129223)"><path d="M5.48 2.74 C5.48 2.9, 5.46 3.06, 5.44 3.21 C5.41 3.37, 5.37 3.53, 5.31 3.68 C5.26 3.82, 5.19 3.97, 5.11 4.11 C5.03 4.25, 4.94 4.38, 4.84 4.5 C4.74 4.62, 4.62 4.74, 4.5 4.84 C4.38 4.94, 4.25 5.03, 4.11 5.11 C3.97 5.19, 3.82 5.26, 3.68 5.31 C3.53 5.37, 3.37 5.41, 3.21 5.44 C3.06 5.46, 2.9 5.48, 2.74 5.48 C2.58 5.48, 2.42 5.46, 2.26 5.44 C2.11 5.41, 1.95 5.37, 1.8 5.31 C1.65 5.26, 1.51 5.19, 1.37 5.11 C1.23 5.03, 1.1 4.94, 0.98 4.84 C0.86 4.74, 0.74 4.62, 0.64 4.5 C0.54 4.38, 0.45 4.25, 0.37 4.11 C0.29 3.97, 0.22 3.82, 0.17 3.68 C0.11 3.53, 0.07 3.37, 0.04 3.21 C0.01 3.06, 0 2.9, 0 2.74 C0 2.58, 0.01 2.42, 0.04 2.26 C0.07 2.11, 0.11 1.95, 0.17 1.8 C0.22 1.65, 0.29 1.51, 0.37 1.37 C0.45 1.23, 0.54 1.1, 0.64 0.98 C0.74 0.86, 0.86 0.74, 0.98 0.64 C1.1 0.54, 1.23 0.45, 1.37 0.37 C1.51 0.29, 1.65 0.22, 1.8 0.17 C1.95 0.11, 2.11 0.07, 2.26 0.04 C2.42 0.01, 2.58 0, 2.74 0 C2.9 0, 3.06 0.01, 3.21 0.04 C3.37 0.07, 3.53 0.11, 3.68 0.17 C3.82 0.22, 3.97 0.29, 4.11 0.37 C4.25 0.45, 4.38 0.54, 4.5 0.64 C4.62 0.74, 4.74 0.86, 4.84 0.98 C4.94 1.1, 5.03 1.23, 5.11 1.37 C5.19 1.51, 5.26 1.65, 5.31 1.8 C5.37 1.95, 5.41 2.11, 5.44 2.26 C5.46 2.42, 5.47 2.66, 5.48 2.74 C5.48 2.82, 5.48 2.66, 5.48 2.74" stroke="none" stroke-width="0" fill="#ffffff"></path><path d="M5.48 2.74 C5.48 2.9, 5.46 3.06, 5.44 3.21 C5.41 3.37, 5.37 3.53, 5.31 3.68 C5.26 3.82, 5.19 3.97, 5.11 4.11 C5.03 4.25, 4.94 4.38, 4.84 4.5 C4.74 4.62, 4.62 4.74, 4.5 4.84 C4.38 4.94, 4.25 5.03, 4.11 5.11 C3.97 5.19, 3.82 5.26, 3.68 5.31 C3.53 5.37, 3.37 5.41, 3.21 5.44 C3.06 5.46, 2.9 5.48, 2.74 5.48 C2.58 5.48, 2.42 5.46, 2.26 5.44 C2.11 5.41, 1.95 5.37, 1.8 5.31 C1.65 5.26, 1.51 5.19, 1.37 5.11 C1.23 5.03, 1.1 4.94, 0.98 4.84 C0.86 4.74, 0.74 4.62, 0.64 4.5 C0.54 4.38, 0.45 4.25, 0.37 4.11 C0.29 3.97, 0.22 3.82, 0.17 3.68 C0.11 3.53, 0.07 3.37, 0.04 3.21 C0.01 3.06, 0 2.9, 0 2.74 C0 2.58, 0.01 2.42, 0.04 2.26 C0.07 2.11, 0.11 1.95, 0.17 1.8 C0.22 1.65, 0.29 1.51, 0.37 1.37 C0.45 1.23, 0.54 1.1, 0.64 0.98 C0.74 0.86, 0.86 0.74, 0.98 0.64 C1.1 0.54, 1.23 0.45, 1.37 0.37 C1.51 0.29, 1.65 0.22, 1.8 0.17 C1.95 0.11, 2.11 0.07, 2.26 0.04 C2.42 0.01, 2.58 0, 2.74 0 C2.9 0, 3.06 0.01, 3.21 0.04 C3.37 0.07, 3.53 0.11, 3.68 0.17 C3.82 0.22, 3.97 0.29, 4.11 0.37 C4.25 0.45, 4.38 0.54, 4.5 0.64 C4.62 0.74, 4.74 0.86, 4.84 0.98 C4.94 1.1, 5.03 1.23, 5.11 1.37 C5.19 1.51, 5.26 1.65, 5.31 1.8 C5.37 1.95, 5.41 2.11, 5.44 2.26 C5.46 2.42, 5.47 2.66, 5.48 2.74 C5.48 2.82, 5.48 2.66, 5.48 2.74" stroke="transparent" stroke-width="2" fill="none"></path></g><g stroke-linecap="round" transform="translate(31.526923841492135 44.28585537008621) rotate(0 2.749046455899361 3.7676550891465013)"><path d="M1.37 0 C2.05 0, 2.73 0, 4.12 0 C5.04 0, 5.5 0.46, 5.5 1.37 C5.5 2.8, 5.5 4.23, 5.5 6.16 C5.5 7.08, 5.04 7.54, 4.12 7.54 C3.42 7.54, 2.72 7.54, 1.37 7.54 C0.46 7.54, 0 7.08, 0 6.16 C0 4.66, 0 3.16, 0 1.37 C0 0.46, 0.46 0, 1.37 0" stroke="none" stroke-width="0" fill="#ffffff"></path><path d="M1.37 0 C2.19 0, 3.01 0, 4.12 0 M1.37 0 C2.36 0, 3.34 0, 4.12 0 M4.12 0 C5.04 0, 5.5 0.46, 5.5 1.37 M4.12 0 C5.04 0, 5.5 0.46, 5.5 1.37 M5.5 1.37 C5.5 2.62, 5.5 3.87, 5.5 6.16 M5.5 1.37 C5.5 3.08, 5.5 4.78, 5.5 6.16 M5.5 6.16 C5.5 7.08, 5.04 7.54, 4.12 7.54 M5.5 6.16 C5.5 7.08, 5.04 7.54, 4.12 7.54 M4.12 7.54 C3.09 7.54, 2.06 7.54, 1.37 7.54 M4.12 7.54 C3.11 7.54, 2.09 7.54, 1.37 7.54 M1.37 7.54 C0.46 7.54, 0 7.08, 0 6.16 M1.37 7.54 C0.46 7.54, 0 7.08, 0 6.16 M0 6.16 C0 4.49, 0 2.83, 0 1.37 M0 6.16 C0 5.08, 0 3.99, 0 1.37 M0 1.37 C0 0.46, 0.46 0, 1.37 0 M0 1.37 C0 0.46, 0.46 0, 1.37 0" stroke="transparent" stroke-width="4" fill="none"></path></g><g stroke-linecap="round" transform="translate(56.77365940296568 40.21609071158673) rotate(135.00000000000017 7.329401299497022 3.1121899749832664)"><path d="M1.56 0 C4.53 0, 7.5 0, 13.1 0 C14.14 0, 14.66 0.52, 14.66 1.56 C14.66 2.38, 14.66 3.21, 14.66 4.67 C14.66 5.71, 14.14 6.22, 13.1 6.22 C10.55 6.22, 8 6.22, 1.56 6.22 C0.52 6.22, 0 5.71, 0 4.67 C0 3.88, 0 3.08, 0 1.56 C0 0.52, 0.52 0, 1.56 0" stroke="none" stroke-width="0" fill="#343a40"></path><path d="M1.56 0 C4.95 0, 8.35 0, 13.1 0 M1.56 0 C5.12 0, 8.68 0, 13.1 0 M13.1 0 C14.14 0, 14.66 0.52, 14.66 1.56 M13.1 0 C14.14 0, 14.66 0.52, 14.66 1.56 M14.66 1.56 C14.66 2.53, 14.66 3.5, 14.66 4.67 M14.66 1.56 C14.66 2.72, 14.66 3.88, 14.66 4.67 M14.66 4.67 C14.66 5.71, 14.14 6.22, 13.1 6.22 M14.66 4.67 C14.66 5.71, 14.14 6.22, 13.1 6.22 M13.1 6.22 C9.19 6.22, 5.27 6.22, 1.56 6.22 M13.1 6.22 C9.81 6.22, 6.51 6.22, 1.56 6.22 M1.56 6.22 C0.52 6.22, 0 5.71, 0 4.67 M1.56 6.22 C0.52 6.22, 0 5.71, 0 4.67 M0 4.67 C0 3.97, 0 3.27, 0 1.56 M0 4.67 C0 3.99, 0 3.3, 0 1.56 M0 1.56 C0 0.52, 0.52 0, 1.56 0 M0 1.56 C0 0.52, 0.52 0, 1.56 0" stroke="transparent" stroke-width="4" fill="none"></path></g><g stroke-linecap="round" transform="translate(65.18338053224306 36.05104770151411) rotate(135.00000000000017 3.0984367821724845 3.09843678217203)"><path d="M6.2 3.1 C6.2 3.28, 6.18 3.46, 6.15 3.64 C6.12 3.81, 6.07 3.99, 6.01 4.16 C5.95 4.33, 5.87 4.49, 5.78 4.65 C5.69 4.8, 5.59 4.95, 5.47 5.09 C5.36 5.23, 5.23 5.36, 5.09 5.47 C4.95 5.59, 4.8 5.69, 4.65 5.78 C4.49 5.87, 4.33 5.95, 4.16 6.01 C3.99 6.07, 3.81 6.12, 3.64 6.15 C3.46 6.18, 3.28 6.2, 3.1 6.2 C2.92 6.2, 2.74 6.18, 2.56 6.15 C2.38 6.12, 2.21 6.07, 2.04 6.01 C1.87 5.95, 1.7 5.87, 1.55 5.78 C1.39 5.69, 1.24 5.59, 1.11 5.47 C0.97 5.36, 0.84 5.23, 0.72 5.09 C0.61 4.95, 0.5 4.8, 0.42 4.65 C0.33 4.49, 0.25 4.33, 0.19 4.16 C0.13 3.99, 0.08 3.81, 0.05 3.64 C0.02 3.46, 0 3.28, 0 3.1 C0 2.92, 0.02 2.74, 0.05 2.56 C0.08 2.38, 0.13 2.21, 0.19 2.04 C0.25 1.87, 0.33 1.7, 0.42 1.55 C0.5 1.39, 0.61 1.24, 0.72 1.11 C0.84 0.97, 0.97 0.84, 1.11 0.72 C1.24 0.61, 1.39 0.5, 1.55 0.42 C1.7 0.33, 1.87 0.25, 2.04 0.19 C2.21 0.13, 2.38 0.08, 2.56 0.05 C2.74 0.02, 2.92 0, 3.1 0 C3.28 0, 3.46 0.02, 3.64 0.05 C3.81 0.08, 3.99 0.13, 4.16 0.19 C4.33 0.25, 4.49 0.33, 4.65 0.42 C4.8 0.5, 4.95 0.61, 5.09 0.72 C5.23 0.84, 5.36 0.97, 5.47 1.11 C5.59 1.24, 5.69 1.39, 5.78 1.55 C5.87 1.7, 5.95 1.87, 6.01 2.04 C6.07 2.21, 6.12 2.38, 6.15 2.56 C6.18 2.74, 6.19 3.01, 6.2 3.1 C6.2 3.19, 6.2 3.01, 6.2 3.1" stroke="none" stroke-width="0" fill="#343a40"></path><path d="M6.2 3.1 C6.2 3.28, 6.18 3.46, 6.15 3.64 C6.12 3.81, 6.07 3.99, 6.01 4.16 C5.95 4.33, 5.87 4.49, 5.78 4.65 C5.69 4.8, 5.59 4.95, 5.47 5.09 C5.36 5.23, 5.23 5.36, 5.09 5.47 C4.95 5.59, 4.8 5.69, 4.65 5.78 C4.49 5.87, 4.33 5.95, 4.16 6.01 C3.99 6.07, 3.81 6.12, 3.64 6.15 C3.46 6.18, 3.28 6.2, 3.1 6.2 C2.92 6.2, 2.74 6.18, 2.56 6.15 C2.38 6.12, 2.21 6.07, 2.04 6.01 C1.87 5.95, 1.7 5.87, 1.55 5.78 C1.39 5.69, 1.24 5.59, 1.11 5.47 C0.97 5.36, 0.84 5.23, 0.72 5.09 C0.61 4.95, 0.5 4.8, 0.42 4.65 C0.33 4.49, 0.25 4.33, 0.19 4.16 C0.13 3.99, 0.08 3.81, 0.05 3.64 C0.02 3.46, 0 3.28, 0 3.1 C0 2.92, 0.02 2.74, 0.05 2.56 C0.08 2.38, 0.13 2.21, 0.19 2.04 C0.25 1.87, 0.33 1.7, 0.42 1.55 C0.5 1.39, 0.61 1.24, 0.72 1.11 C0.84 0.97, 0.97 0.84, 1.11 0.72 C1.24 0.61, 1.39 0.5, 1.55 0.42 C1.7 0.33, 1.87 0.25, 2.04 0.19 C2.21 0.13, 2.38 0.08, 2.56 0.05 C2.74 0.02, 2.92 0, 3.1 0 C3.28 0, 3.46 0.02, 3.64 0.05 C3.81 0.08, 3.99 0.13, 4.16 0.19 C4.33 0.25, 4.49 0.33, 4.65 0.42 C4.8 0.5, 4.95 0.61, 5.09 0.72 C5.23 0.84, 5.36 0.97, 5.47 1.11 C5.59 1.24, 5.69 1.39, 5.78 1.55 C5.87 1.7, 5.95 1.87, 6.01 2.04 C6.07 2.21, 6.12 2.38, 6.15 2.56 C6.18 2.74, 6.19 3.01, 6.2 3.1 C6.2 3.19, 6.2 3.01, 6.2 3.1" stroke="transparent" stroke-width="2" fill="none"></path></g><g stroke-linecap="round" transform="translate(55.83292909615466 48.40315539346375) rotate(0 5.068088924688254 5.0680889246878)"><path d="M10.14 5.07 C10.14 5.36, 10.11 5.66, 10.06 5.95 C10.01 6.24, 9.93 6.53, 9.83 6.8 C9.73 7.08, 9.6 7.35, 9.46 7.6 C9.31 7.86, 9.14 8.1, 8.95 8.33 C8.76 8.55, 8.55 8.76, 8.33 8.95 C8.1 9.14, 7.86 9.31, 7.6 9.46 C7.35 9.6, 7.08 9.73, 6.8 9.83 C6.53 9.93, 6.24 10.01, 5.95 10.06 C5.66 10.11, 5.36 10.14, 5.07 10.14 C4.77 10.14, 4.48 10.11, 4.19 10.06 C3.9 10.01, 3.61 9.93, 3.33 9.83 C3.06 9.73, 2.79 9.6, 2.53 9.46 C2.28 9.31, 2.04 9.14, 1.81 8.95 C1.59 8.76, 1.37 8.55, 1.19 8.33 C1 8.1, 0.83 7.86, 0.68 7.6 C0.53 7.35, 0.41 7.08, 0.31 6.8 C0.21 6.53, 0.13 6.24, 0.08 5.95 C0.03 5.66, 0 5.36, 0 5.07 C0 4.77, 0.03 4.48, 0.08 4.19 C0.13 3.9, 0.21 3.61, 0.31 3.33 C0.41 3.06, 0.53 2.79, 0.68 2.53 C0.83 2.28, 1 2.04, 1.19 1.81 C1.37 1.59, 1.59 1.37, 1.81 1.19 C2.04 1, 2.28 0.83, 2.53 0.68 C2.79 0.53, 3.06 0.41, 3.33 0.31 C3.61 0.21, 3.9 0.13, 4.19 0.08 C4.48 0.03, 4.77 0, 5.07 0 C5.36 0, 5.66 0.03, 5.95 0.08 C6.24 0.13, 6.53 0.21, 6.8 0.31 C7.08 0.41, 7.35 0.53, 7.6 0.68 C7.86 0.83, 8.1 1, 8.33 1.19 C8.55 1.37, 8.76 1.59, 8.95 1.81 C9.14 2.04, 9.31 2.28, 9.46 2.53 C9.6 2.79, 9.73 3.06, 9.83 3.33 C9.93 3.61, 10.01 3.9, 10.06 4.19 C10.11 4.48, 10.12 4.92, 10.14 5.07 C10.15 5.21, 10.15 4.92, 10.14 5.07" stroke="none" stroke-width="0" fill="#f783ac"></path><path d="M10.14 5.07 C10.14 5.36, 10.11 5.66, 10.06 5.95 C10.01 6.24, 9.93 6.53, 9.83 6.8 C9.73 7.08, 9.6 7.35, 9.46 7.6 C9.31 7.86, 9.14 8.1, 8.95 8.33 C8.76 8.55, 8.55 8.76, 8.33 8.95 C8.1 9.14, 7.86 9.31, 7.6 9.46 C7.35 9.6, 7.08 9.73, 6.8 9.83 C6.53 9.93, 6.24 10.01, 5.95 10.06 C5.66 10.11, 5.36 10.14, 5.07 10.14 C4.77 10.14, 4.48 10.11, 4.19 10.06 C3.9 10.01, 3.61 9.93, 3.33 9.83 C3.06 9.73, 2.79 9.6, 2.53 9.46 C2.28 9.31, 2.04 9.14, 1.81 8.95 C1.59 8.76, 1.37 8.55, 1.19 8.33 C1 8.1, 0.83 7.86, 0.68 7.6 C0.53 7.35, 0.41 7.08, 0.31 6.8 C0.21 6.53, 0.13 6.24, 0.08 5.95 C0.03 5.66, 0 5.36, 0 5.07 C0 4.77, 0.03 4.48, 0.08 4.19 C0.13 3.9, 0.21 3.61, 0.31 3.33 C0.41 3.06, 0.53 2.79, 0.68 2.53 C0.83 2.28, 1 2.04, 1.19 1.81 C1.37 1.59, 1.59 1.37, 1.81 1.19 C2.04 1, 2.28 0.83, 2.53 0.68 C2.79 0.53, 3.06 0.41, 3.33 0.31 C3.61 0.21, 3.9 0.13, 4.19 0.08 C4.48 0.03, 4.77 0, 5.07 0 C5.36 0, 5.66 0.03, 5.95 0.08 C6.24 0.13, 6.53 0.21, 6.8 0.31 C7.08 0.41, 7.35 0.53, 7.6 0.68 C7.86 0.83, 8.1 1, 8.33 1.19 C8.55 1.37, 8.76 1.59, 8.95 1.81 C9.14 2.04, 9.31 2.28, 9.46 2.53 C9.6 2.79, 9.73 3.06, 9.83 3.33 C9.93 3.61, 10.01 3.9, 10.06 4.19 C10.11 4.48, 10.12 4.92, 10.14 5.07 C10.15 5.21, 10.15 4.92, 10.14 5.07" stroke="transparent" stroke-width="2" fill="none"></path></g><g stroke-linecap="round" transform="translate(53.818309331333694 38.99238093879103) rotate(90.0000000000001 7.0297180106781525 7.768276566167515)"><path d="M3.51 0 C6.08 0, 8.65 0, 10.54 0 C12.89 0, 14.06 1.17, 14.06 3.51 C14.06 6.35, 14.06 9.19, 14.06 12.02 C14.06 14.36, 12.89 15.54, 10.54 15.54 C8.97 15.54, 7.4 15.54, 3.51 15.54 C1.17 15.54, 0 14.36, 0 12.02 C0 8.94, 0 5.86, 0 3.51 C0 1.17, 1.17 0, 3.51 0" stroke="none" stroke-width="0" fill="#343a40"></path><path d="M3.51 0 C5.04 0, 6.57 0, 10.54 0 M3.51 0 C5.48 0, 7.45 0, 10.54 0 M10.54 0 C12.89 0, 14.06 1.17, 14.06 3.51 M10.54 0 C12.89 0, 14.06 1.17, 14.06 3.51 M14.06 3.51 C14.06 6.65, 14.06 9.79, 14.06 12.02 M14.06 3.51 C14.06 5.4, 14.06 7.28, 14.06 12.02 M14.06 12.02 C14.06 14.36, 12.89 15.54, 10.54 15.54 M14.06 12.02 C14.06 14.36, 12.89 15.54, 10.54 15.54 M10.54 15.54 C8.37 15.54, 6.19 15.54, 3.51 15.54 M10.54 15.54 C8.05 15.54, 5.56 15.54, 3.51 15.54 M3.51 15.54 C1.17 15.54, 0 14.36, 0 12.02 M3.51 15.54 C1.17 15.54, 0 14.36, 0 12.02 M0 12.02 C0 9.27, 0 6.52, 0 3.51 M0 12.02 C0 8.65, 0 5.28, 0 3.51 M0 3.51 C0 1.17, 1.17 0, 3.51 0 M0 3.51 C0 1.17, 1.17 0, 3.51 0" stroke="transparent" stroke-width="4" fill="none"></path></g><g stroke-linecap="round" transform="translate(53.1140099737795 35.54072492504383) rotate(90.0000000000001 7.733947490409719 7.733947490409264)"><path d="M15.47 7.73 C15.47 8.18, 15.43 8.64, 15.35 9.08 C15.27 9.52, 15.15 9.96, 15 10.38 C14.85 10.8, 14.66 11.21, 14.43 11.6 C14.21 11.99, 13.95 12.36, 13.66 12.71 C13.37 13.05, 13.05 13.37, 12.71 13.66 C12.36 13.95, 11.99 14.21, 11.6 14.43 C11.21 14.66, 10.8 14.85, 10.38 15 C9.96 15.15, 9.52 15.27, 9.08 15.35 C8.64 15.43, 8.18 15.47, 7.73 15.47 C7.29 15.47, 6.83 15.43, 6.39 15.35 C5.95 15.27, 5.51 15.15, 5.09 15 C4.67 14.85, 4.25 14.66, 3.87 14.43 C3.48 14.21, 3.11 13.95, 2.76 13.66 C2.42 13.37, 2.1 13.05, 1.81 12.71 C1.52 12.36, 1.26 11.99, 1.04 11.6 C0.81 11.21, 0.62 10.8, 0.47 10.38 C0.31 9.96, 0.2 9.52, 0.12 9.08 C0.04 8.64, 0 8.18, 0 7.73 C0 7.29, 0.04 6.83, 0.12 6.39 C0.2 5.95, 0.31 5.51, 0.47 5.09 C0.62 4.67, 0.81 4.25, 1.04 3.87 C1.26 3.48, 1.52 3.11, 1.81 2.76 C2.1 2.42, 2.42 2.1, 2.76 1.81 C3.11 1.52, 3.48 1.26, 3.87 1.04 C4.25 0.81, 4.67 0.62, 5.09 0.47 C5.51 0.31, 5.95 0.2, 6.39 0.12 C6.83 0.04, 7.29 0, 7.73 0 C8.18 0, 8.64 0.04, 9.08 0.12 C9.52 0.2, 9.96 0.31, 10.38 0.47 C10.8 0.62, 11.21 0.81, 11.6 1.04 C11.99 1.26, 12.36 1.52, 12.71 1.81 C13.05 2.1, 13.37 2.42, 13.66 2.76 C13.95 3.11, 14.21 3.48, 14.43 3.87 C14.66 4.25, 14.85 4.67, 15 5.09 C15.15 5.51, 15.27 5.95, 15.35 6.39 C15.43 6.83, 15.45 7.51, 15.47 7.73 C15.49 7.96, 15.49 7.51, 15.47 7.73" stroke="none" stroke-width="0" fill="#343a40"></path><path d="M15.47 7.73 C15.47 8.18, 15.43 8.64, 15.35 9.08 C15.27 9.52, 15.15 9.96, 15 10.38 C14.85 10.8, 14.66 11.21, 14.43 11.6 C14.21 11.99, 13.95 12.36, 13.66 12.71 C13.37 13.05, 13.05 13.37, 12.71 13.66 C12.36 13.95, 11.99 14.21, 11.6 14.43 C11.21 14.66, 10.8 14.85, 10.38 15 C9.96 15.15, 9.52 15.27, 9.08 15.35 C8.64 15.43, 8.18 15.47, 7.73 15.47 C7.29 15.47, 6.83 15.43, 6.39 15.35 C5.95 15.27, 5.51 15.15, 5.09 15 C4.67 14.85, 4.25 14.66, 3.87 14.43 C3.48 14.21, 3.11 13.95, 2.76 13.66 C2.42 13.37, 2.1 13.05, 1.81 12.71 C1.52 12.36, 1.26 11.99, 1.04 11.6 C0.81 11.21, 0.62 10.8, 0.47 10.38 C0.31 9.96, 0.2 9.52, 0.12 9.08 C0.04 8.64, 0 8.18, 0 7.73 C0 7.29, 0.04 6.83, 0.12 6.39 C0.2 5.95, 0.31 5.51, 0.47 5.09 C0.62 4.67, 0.81 4.25, 1.04 3.87 C1.26 3.48, 1.52 3.11, 1.81 2.76 C2.1 2.42, 2.42 2.1, 2.76 1.81 C3.11 1.52, 3.48 1.26, 3.87 1.04 C4.25 0.81, 4.67 0.62, 5.09 0.47 C5.51 0.31, 5.95 0.2, 6.39 0.12 C6.83 0.04, 7.29 0, 7.73 0 C8.18 0, 8.64 0.04, 9.08 0.12 C9.52 0.2, 9.96 0.31, 10.38 0.47 C10.8 0.62, 11.21 0.81, 11.6 1.04 C11.99 1.26, 12.36 1.52, 12.71 1.81 C13.05 2.1, 13.37 2.42, 13.66 2.76 C13.95 3.11, 14.21 3.48, 14.43 3.87 C14.66 4.25, 14.85 4.67, 15 5.09 C15.15 5.51, 15.27 5.95, 15.35 6.39 C15.43 6.83, 15.45 7.51, 15.47 7.73 C15.49 7.96, 15.49 7.51, 15.47 7.73" stroke="transparent" stroke-width="2" fill="none"></path></g><g stroke-linecap="round" transform="translate(58.12817387096129 42.61392530984631) rotate(0 2.7389095661287683 2.738909566129223)"><path d="M5.48 2.74 C5.48 2.9, 5.46 3.06, 5.44 3.21 C5.41 3.37, 5.37 3.53, 5.31 3.68 C5.26 3.82, 5.19 3.97, 5.11 4.11 C5.03 4.25, 4.94 4.38, 4.84 4.5 C4.74 4.62, 4.62 4.74, 4.5 4.84 C4.38 4.94, 4.25 5.03, 4.11 5.11 C3.97 5.19, 3.82 5.26, 3.68 5.31 C3.53 5.37, 3.37 5.41, 3.21 5.44 C3.06 5.46, 2.9 5.48, 2.74 5.48 C2.58 5.48, 2.42 5.46, 2.26 5.44 C2.11 5.41, 1.95 5.37, 1.8 5.31 C1.65 5.26, 1.51 5.19, 1.37 5.11 C1.23 5.03, 1.1 4.94, 0.98 4.84 C0.86 4.74, 0.74 4.62, 0.64 4.5 C0.54 4.38, 0.45 4.25, 0.37 4.11 C0.29 3.97, 0.22 3.82, 0.17 3.68 C0.11 3.53, 0.07 3.37, 0.04 3.21 C0.01 3.06, 0 2.9, 0 2.74 C0 2.58, 0.01 2.42, 0.04 2.26 C0.07 2.11, 0.11 1.95, 0.17 1.8 C0.22 1.65, 0.29 1.51, 0.37 1.37 C0.45 1.23, 0.54 1.1, 0.64 0.98 C0.74 0.86, 0.86 0.74, 0.98 0.64 C1.1 0.54, 1.23 0.45, 1.37 0.37 C1.51 0.29, 1.65 0.22, 1.8 0.17 C1.95 0.11, 2.11 0.07, 2.26 0.04 C2.42 0.01, 2.58 0, 2.74 0 C2.9 0, 3.06 0.01, 3.21 0.04 C3.37 0.07, 3.53 0.11, 3.68 0.17 C3.82 0.22, 3.97 0.29, 4.11 0.37 C4.25 0.45, 4.38 0.54, 4.5 0.64 C4.62 0.74, 4.74 0.86, 4.84 0.98 C4.94 1.1, 5.03 1.23, 5.11 1.37 C5.19 1.51, 5.26 1.65, 5.31 1.8 C5.37 1.95, 5.41 2.11, 5.44 2.26 C5.46 2.42, 5.47 2.66, 5.48 2.74 C5.48 2.82, 5.48 2.66, 5.48 2.74" stroke="none" stroke-width="0" fill="#ffffff"></path><path d="M5.48 2.74 C5.48 2.9, 5.46 3.06, 5.44 3.21 C5.41 3.37, 5.37 3.53, 5.31 3.68 C5.26 3.82, 5.19 3.97, 5.11 4.11 C5.03 4.25, 4.94 4.38, 4.84 4.5 C4.74 4.62, 4.62 4.74, 4.5 4.84 C4.38 4.94, 4.25 5.03, 4.11 5.11 C3.97 5.19, 3.82 5.26, 3.68 5.31 C3.53 5.37, 3.37 5.41, 3.21 5.44 C3.06 5.46, 2.9 5.48, 2.74 5.48 C2.58 5.48, 2.42 5.46, 2.26 5.44 C2.11 5.41, 1.95 5.37, 1.8 5.31 C1.65 5.26, 1.51 5.19, 1.37 5.11 C1.23 5.03, 1.1 4.94, 0.98 4.84 C0.86 4.74, 0.74 4.62, 0.64 4.5 C0.54 4.38, 0.45 4.25, 0.37 4.11 C0.29 3.97, 0.22 3.82, 0.17 3.68 C0.11 3.53, 0.07 3.37, 0.04 3.21 C0.01 3.06, 0 2.9, 0 2.74 C0 2.58, 0.01 2.42, 0.04 2.26 C0.07 2.11, 0.11 1.95, 0.17 1.8 C0.22 1.65, 0.29 1.51, 0.37 1.37 C0.45 1.23, 0.54 1.1, 0.64 0.98 C0.74 0.86, 0.86 0.74, 0.98 0.64 C1.1 0.54, 1.23 0.45, 1.37 0.37 C1.51 0.29, 1.65 0.22, 1.8 0.17 C1.95 0.11, 2.11 0.07, 2.26 0.04 C2.42 0.01, 2.58 0, 2.74 0 C2.9 0, 3.06 0.01, 3.21 0.04 C3.37 0.07, 3.53 0.11, 3.68 0.17 C3.82 0.22, 3.97 0.29, 4.11 0.37 C4.25 0.45, 4.38 0.54, 4.5 0.64 C4.62 0.74, 4.74 0.86, 4.84 0.98 C4.94 1.1, 5.03 1.23, 5.11 1.37 C5.19 1.51, 5.26 1.65, 5.31 1.8 C5.37 1.95, 5.41 2.11, 5.44 2.26 C5.46 2.42, 5.47 2.66, 5.48 2.74 C5.48 2.82, 5.48 2.66, 5.48 2.74" stroke="transparent" stroke-width="2" fill="none"></path></g><g stroke-linecap="round" transform="translate(58.11803698118911 44.28585537008621) rotate(0 2.749046455899588 3.7676550891465013)"><path d="M1.37 0 C2.05 0, 2.72 0, 4.12 0 C5.04 0, 5.5 0.46, 5.5 1.37 C5.5 3.22, 5.5 5.06, 5.5 6.16 C5.5 7.08, 5.04 7.54, 4.12 7.54 C3.18 7.54, 2.24 7.54, 1.37 7.54 C0.46 7.54, 0 7.08, 0 6.16 C0 5.03, 0 3.89, 0 1.37 C0 0.46, 0.46 0, 1.37 0" stroke="none" stroke-width="0" fill="#ffffff"></path><path d="M1.37 0 C2.1 0, 2.83 0, 4.12 0 M1.37 0 C2.41 0, 3.45 0, 4.12 0 M4.12 0 C5.04 0, 5.5 0.46, 5.5 1.37 M4.12 0 C5.04 0, 5.5 0.46, 5.5 1.37 M5.5 1.37 C5.5 3.01, 5.5 4.65, 5.5 6.16 M5.5 1.37 C5.5 3.14, 5.5 4.91, 5.5 6.16 M5.5 6.16 C5.5 7.08, 5.04 7.54, 4.12 7.54 M5.5 6.16 C5.5 7.08, 5.04 7.54, 4.12 7.54 M4.12 7.54 C3.54 7.54, 2.96 7.54, 1.37 7.54 M4.12 7.54 C3.54 7.54, 2.95 7.54, 1.37 7.54 M1.37 7.54 C0.46 7.54, 0 7.08, 0 6.16 M1.37 7.54 C0.46 7.54, 0 7.08, 0 6.16 M0 6.16 C0 5.2, 0 4.23, 0 1.37 M0 6.16 C0 5.17, 0 4.17, 0 1.37 M0 1.37 C0 0.46, 0.46 0, 1.37 0 M0 1.37 C0 0.46, 0.46 0, 1.37 0" stroke="transparent" stroke-width="4" fill="none"></path></g><g stroke-linecap="round" transform="translate(41.724088420322005 56.016783330007456) rotate(270.0000000000001 5.847438256942496 5.847438256942951)"><path d="M11.69 5.85 C11.69 6.19, 11.66 6.53, 11.61 6.86 C11.55 7.2, 11.46 7.53, 11.34 7.85 C11.23 8.17, 11.08 8.48, 10.91 8.77 C10.74 9.06, 10.54 9.35, 10.33 9.61 C10.11 9.87, 9.87 10.11, 9.61 10.33 C9.35 10.54, 9.06 10.74, 8.77 10.91 C8.48 11.08, 8.17 11.23, 7.85 11.34 C7.53 11.46, 7.2 11.55, 6.86 11.61 C6.53 11.66, 6.19 11.69, 5.85 11.69 C5.51 11.69, 5.17 11.66, 4.83 11.61 C4.5 11.55, 4.17 11.46, 3.85 11.34 C3.53 11.23, 3.22 11.08, 2.92 10.91 C2.63 10.74, 2.35 10.54, 2.09 10.33 C1.83 10.11, 1.59 9.87, 1.37 9.61 C1.15 9.35, 0.95 9.06, 0.78 8.77 C0.61 8.48, 0.47 8.17, 0.35 7.85 C0.24 7.53, 0.15 7.2, 0.09 6.86 C0.03 6.53, 0 6.19, 0 5.85 C0 5.51, 0.03 5.17, 0.09 4.83 C0.15 4.5, 0.24 4.17, 0.35 3.85 C0.47 3.53, 0.61 3.22, 0.78 2.92 C0.95 2.63, 1.15 2.35, 1.37 2.09 C1.59 1.83, 1.83 1.59, 2.09 1.37 C2.35 1.15, 2.63 0.95, 2.92 0.78 C3.22 0.61, 3.53 0.47, 3.85 0.35 C4.17 0.24, 4.5 0.15, 4.83 0.09 C5.17 0.03, 5.51 0, 5.85 0 C6.19 0, 6.53 0.03, 6.86 0.09 C7.2 0.15, 7.53 0.24, 7.85 0.35 C8.17 0.47, 8.48 0.61, 8.77 0.78 C9.06 0.95, 9.35 1.15, 9.61 1.37 C9.87 1.59, 10.11 1.83, 10.33 2.09 C10.54 2.35, 10.74 2.63, 10.91 2.92 C11.08 3.22, 11.23 3.53, 11.34 3.85 C11.46 4.17, 11.55 4.5, 11.61 4.83 C11.66 5.17, 11.68 5.68, 11.69 5.85 C11.71 6.02, 11.71 5.68, 11.69 5.85" stroke="none" stroke-width="0" fill="#343a40"></path><path d="M11.69 5.85 C11.69 6.19, 11.66 6.53, 11.61 6.86 C11.55 7.2, 11.46 7.53, 11.34 7.85 C11.23 8.17, 11.08 8.48, 10.91 8.77 C10.74 9.06, 10.54 9.35, 10.33 9.61 C10.11 9.87, 9.87 10.11, 9.61 10.33 C9.35 10.54, 9.06 10.74, 8.77 10.91 C8.48 11.08, 8.17 11.23, 7.85 11.34 C7.53 11.46, 7.2 11.55, 6.86 11.61 C6.53 11.66, 6.19 11.69, 5.85 11.69 C5.51 11.69, 5.17 11.66, 4.83 11.61 C4.5 11.55, 4.17 11.46, 3.85 11.34 C3.53 11.23, 3.22 11.08, 2.92 10.91 C2.63 10.74, 2.35 10.54, 2.09 10.33 C1.83 10.11, 1.59 9.87, 1.37 9.61 C1.15 9.35, 0.95 9.06, 0.78 8.77 C0.61 8.48, 0.47 8.17, 0.35 7.85 C0.24 7.53, 0.15 7.2, 0.09 6.86 C0.03 6.53, 0 6.19, 0 5.85 C0 5.51, 0.03 5.17, 0.09 4.83 C0.15 4.5, 0.24 4.17, 0.35 3.85 C0.47 3.53, 0.61 3.22, 0.78 2.92 C0.95 2.63, 1.15 2.35, 1.37 2.09 C1.59 1.83, 1.83 1.59, 2.09 1.37 C2.35 1.15, 2.63 0.95, 2.92 0.78 C3.22 0.61, 3.53 0.47, 3.85 0.35 C4.17 0.24, 4.5 0.15, 4.83 0.09 C5.17 0.03, 5.51 0, 5.85 0 C6.19 0, 6.53 0.03, 6.86 0.09 C7.2 0.15, 7.53 0.24, 7.85 0.35 C8.17 0.47, 8.48 0.61, 8.77 0.78 C9.06 0.95, 9.35 1.15, 9.61 1.37 C9.87 1.59, 10.11 1.83, 10.33 2.09 C10.54 2.35, 10.74 2.63, 10.91 2.92 C11.08 3.22, 11.23 3.53, 11.34 3.85 C11.46 4.17, 11.55 4.5, 11.61 4.83 C11.66 5.17, 11.68 5.68, 11.69 5.85 C11.71 6.02, 11.71 5.68, 11.69 5.85" stroke="transparent" stroke-width="1" fill="none"></path></g><g stroke-linecap="round" transform="translate(42.64026691271283 53.43840598236784) rotate(270.0000000000001 4.92640871419826 5.83782387426163)"><path d="M2.46 0 C3.96 0, 5.45 0, 7.39 0 C9.03 0, 9.85 0.82, 9.85 2.46 C9.85 4.32, 9.85 6.18, 9.85 9.21 C9.85 10.85, 9.03 11.68, 7.39 11.68 C5.87 11.68, 4.36 11.68, 2.46 11.68 C0.82 11.68, 0 10.85, 0 9.21 C0 6.52, 0 3.82, 0 2.46 C0 0.82, 0.82 0, 2.46 0" stroke="none" stroke-width="0" fill="#343a40"></path><path d="M2.46 0 C4.32 0, 6.18 0, 7.39 0 M2.46 0 C3.5 0, 4.54 0, 7.39 0 M7.39 0 C9.03 0, 9.85 0.82, 9.85 2.46 M7.39 0 C9.03 0, 9.85 0.82, 9.85 2.46 M9.85 2.46 C9.85 4.64, 9.85 6.83, 9.85 9.21 M9.85 2.46 C9.85 4.97, 9.85 7.47, 9.85 9.21 M9.85 9.21 C9.85 10.85, 9.03 11.68, 7.39 11.68 M9.85 9.21 C9.85 10.85, 9.03 11.68, 7.39 11.68 M7.39 11.68 C5.6 11.68, 3.81 11.68, 2.46 11.68 M7.39 11.68 C5.63 11.68, 3.87 11.68, 2.46 11.68 M2.46 11.68 C0.82 11.68, 0 10.85, 0 9.21 M2.46 11.68 C0.82 11.68, 0 10.85, 0 9.21 M0 9.21 C0 7.01, 0 4.8, 0 2.46 M0 9.21 C0 7.19, 0 5.16, 0 2.46 M0 2.46 C0 0.82, 0.82 0, 2.46 0 M0 2.46 C0 0.82, 0.82 0, 2.46 0" stroke="transparent" stroke-width="1" fill="none"></path></g><g stroke-linecap="round" transform="translate(44.10629598654259 58.18288455907168) rotate(270.0000000000001 3.4652306907216825 3.46523069072191)"><path d="M6.93 3.47 C6.93 3.67, 6.91 3.87, 6.88 4.07 C6.84 4.26, 6.79 4.46, 6.72 4.65 C6.65 4.84, 6.57 5.02, 6.47 5.2 C6.37 5.37, 6.25 5.54, 6.12 5.69 C5.99 5.85, 5.85 5.99, 5.69 6.12 C5.54 6.25, 5.37 6.37, 5.2 6.47 C5.02 6.57, 4.84 6.65, 4.65 6.72 C4.46 6.79, 4.26 6.84, 4.07 6.88 C3.87 6.91, 3.67 6.93, 3.47 6.93 C3.26 6.93, 3.06 6.91, 2.86 6.88 C2.67 6.84, 2.47 6.79, 2.28 6.72 C2.09 6.65, 1.91 6.57, 1.73 6.47 C1.56 6.37, 1.39 6.25, 1.24 6.12 C1.08 5.99, 0.94 5.85, 0.81 5.69 C0.68 5.54, 0.56 5.37, 0.46 5.2 C0.36 5.02, 0.28 4.84, 0.21 4.65 C0.14 4.46, 0.09 4.26, 0.05 4.07 C0.02 3.87, 0 3.67, 0 3.47 C0 3.26, 0.02 3.06, 0.05 2.86 C0.09 2.67, 0.14 2.47, 0.21 2.28 C0.28 2.09, 0.36 1.91, 0.46 1.73 C0.56 1.56, 0.68 1.39, 0.81 1.24 C0.94 1.08, 1.08 0.94, 1.24 0.81 C1.39 0.68, 1.56 0.56, 1.73 0.46 C1.91 0.36, 2.09 0.28, 2.28 0.21 C2.47 0.14, 2.67 0.09, 2.86 0.05 C3.06 0.02, 3.26 0, 3.47 0 C3.67 0, 3.87 0.02, 4.07 0.05 C4.26 0.09, 4.46 0.14, 4.65 0.21 C4.84 0.28, 5.02 0.36, 5.2 0.46 C5.37 0.56, 5.54 0.68, 5.69 0.81 C5.85 0.94, 5.99 1.08, 6.12 1.24 C6.25 1.39, 6.37 1.56, 6.47 1.73 C6.57 1.91, 6.65 2.09, 6.72 2.28 C6.79 2.47, 6.84 2.67, 6.88 2.86 C6.91 3.06, 6.92 3.36, 6.93 3.47 C6.94 3.57, 6.94 3.36, 6.93 3.47" stroke="none" stroke-width="0" fill="#f783ac"></path><path d="M6.93 3.47 C6.93 3.67, 6.91 3.87, 6.88 4.07 C6.84 4.26, 6.79 4.46, 6.72 4.65 C6.65 4.84, 6.57 5.02, 6.47 5.2 C6.37 5.37, 6.25 5.54, 6.12 5.69 C5.99 5.85, 5.85 5.99, 5.69 6.12 C5.54 6.25, 5.37 6.37, 5.2 6.47 C5.02 6.57, 4.84 6.65, 4.65 6.72 C4.46 6.79, 4.26 6.84, 4.07 6.88 C3.87 6.91, 3.67 6.93, 3.47 6.93 C3.26 6.93, 3.06 6.91, 2.86 6.88 C2.67 6.84, 2.47 6.79, 2.28 6.72 C2.09 6.65, 1.91 6.57, 1.73 6.47 C1.56 6.37, 1.39 6.25, 1.24 6.12 C1.08 5.99, 0.94 5.85, 0.81 5.69 C0.68 5.54, 0.56 5.37, 0.46 5.2 C0.36 5.02, 0.28 4.84, 0.21 4.65 C0.14 4.46, 0.09 4.26, 0.05 4.07 C0.02 3.87, 0 3.67, 0 3.47 C0 3.26, 0.02 3.06, 0.05 2.86 C0.09 2.67, 0.14 2.47, 0.21 2.28 C0.28 2.09, 0.36 1.91, 0.46 1.73 C0.56 1.56, 0.68 1.39, 0.81 1.24 C0.94 1.08, 1.08 0.94, 1.24 0.81 C1.39 0.68, 1.56 0.56, 1.73 0.46 C1.91 0.36, 2.09 0.28, 2.28 0.21 C2.47 0.14, 2.67 0.09, 2.86 0.05 C3.06 0.02, 3.26 0, 3.47 0 C3.67 0, 3.87 0.02, 4.07 0.05 C4.26 0.09, 4.46 0.14, 4.65 0.21 C4.84 0.28, 5.02 0.36, 5.2 0.46 C5.37 0.56, 5.54 0.68, 5.69 0.81 C5.85 0.94, 5.99 1.08, 6.12 1.24 C6.25 1.39, 6.37 1.56, 6.47 1.73 C6.57 1.91, 6.65 2.09, 6.72 2.28 C6.79 2.47, 6.84 2.67, 6.88 2.86 C6.91 3.06, 6.92 3.36, 6.93 3.47 C6.94 3.57, 6.94 3.36, 6.93 3.47" stroke="transparent" stroke-width="2" fill="none"></path></g><g stroke-linecap="round" transform="translate(45.27961375454879 57.0361844038689) rotate(270.0000000000001 2.2877534341544106 4.276406077819047)"><path d="M1.14 0 C1.73 0, 2.31 0, 3.43 0 C4.19 0, 4.58 0.38, 4.58 1.14 C4.58 3.11, 4.58 5.07, 4.58 7.41 C4.58 8.17, 4.19 8.55, 3.43 8.55 C2.66 8.55, 1.88 8.55, 1.14 8.55 C0.38 8.55, 0 8.17, 0 7.41 C0 5.07, 0 2.73, 0 1.14 C0 0.38, 0.38 0, 1.14 0" stroke="none" stroke-width="0" fill="#343a40"></path><path d="M1.14 0 C1.74 0, 2.34 0, 3.43 0 M1.14 0 C1.96 0, 2.77 0, 3.43 0 M3.43 0 C4.19 0, 4.58 0.38, 4.58 1.14 M3.43 0 C4.19 0, 4.58 0.38, 4.58 1.14 M4.58 1.14 C4.58 3.5, 4.58 5.85, 4.58 7.41 M4.58 1.14 C4.58 3.46, 4.58 5.78, 4.58 7.41 M4.58 7.41 C4.58 8.17, 4.19 8.55, 3.43 8.55 M4.58 7.41 C4.58 8.17, 4.19 8.55, 3.43 8.55 M3.43 8.55 C2.63 8.55, 1.84 8.55, 1.14 8.55 M3.43 8.55 C2.91 8.55, 2.4 8.55, 1.14 8.55 M1.14 8.55 C0.38 8.55, 0 8.17, 0 7.41 M1.14 8.55 C0.38 8.55, 0 8.17, 0 7.41 M0 7.41 C0 5.87, 0 4.33, 0 1.14 M0 7.41 C0 5.19, 0 2.98, 0 1.14 M0 1.14 C0 0.38, 0.38 0, 1.14 0 M0 1.14 C0 0.38, 0.38 0, 1.14 0" stroke="transparent" stroke-width="4" fill="none"></path></g><g stroke-linecap="round" transform="translate(44.45939283231746 57.30536883246714) rotate(0 3.1120999245567873 1.9903750397552358)"><path d="M1 0 C1.93 0, 2.86 0, 5.23 0 C5.89 0, 6.22 0.33, 6.22 1 C6.22 1.5, 6.22 2.01, 6.22 2.99 C6.22 3.65, 5.89 3.98, 5.23 3.98 C3.71 3.98, 2.2 3.98, 1 3.98 C0.33 3.98, 0 3.65, 0 2.99 C0 2.5, 0 2.02, 0 1 C0 0.33, 0.33 0, 1 0" stroke="none" stroke-width="0" fill="#ffffff"></path><path d="M1 0 C2.32 0, 3.64 0, 5.23 0 M1 0 C2.58 0, 4.15 0, 5.23 0 M5.23 0 C5.89 0, 6.22 0.33, 6.22 1 M5.23 0 C5.89 0, 6.22 0.33, 6.22 1 M6.22 1 C6.22 1.67, 6.22 2.35, 6.22 2.99 M6.22 1 C6.22 1.56, 6.22 2.13, 6.22 2.99 M6.22 2.99 C6.22 3.65, 5.89 3.98, 5.23 3.98 M6.22 2.99 C6.22 3.65, 5.89 3.98, 5.23 3.98 M5.23 3.98 C4.28 3.98, 3.32 3.98, 1 3.98 M5.23 3.98 C4.3 3.98, 3.37 3.98, 1 3.98 M1 3.98 C0.33 3.98, 0 3.65, 0 2.99 M1 3.98 C0.33 3.98, 0 3.65, 0 2.99 M0 2.99 C0 2.47, 0 1.96, 0 1 M0 2.99 C0 2.54, 0 2.09, 0 1 M0 1 C0 0.33, 0.33 0, 1 0 M0 1 C0 0.33, 0.33 0, 1 0" stroke="transparent" stroke-width="1" fill="none"></path></g><g stroke-linecap="round" transform="translate(44.67706812003689 63.056748429973595) rotate(0 2.89445859857733 0.49751777008077624)"><path d="M5.79 0.5 C5.79 0.53, 5.77 0.56, 5.74 0.58 C5.72 0.61, 5.67 0.64, 5.61 0.67 C5.56 0.69, 5.48 0.72, 5.4 0.75 C5.32 0.77, 5.22 0.8, 5.11 0.82 C5 0.84, 4.88 0.86, 4.75 0.88 C4.63 0.9, 4.49 0.91, 4.34 0.93 C4.2 0.94, 4.04 0.96, 3.88 0.97 C3.73 0.97, 3.56 0.98, 3.4 0.99 C3.23 0.99, 3.06 1, 2.89 1 C2.73 1, 2.56 0.99, 2.39 0.99 C2.23 0.98, 2.06 0.97, 1.9 0.97 C1.75 0.96, 1.59 0.94, 1.45 0.93 C1.3 0.91, 1.16 0.9, 1.03 0.88 C0.91 0.86, 0.78 0.84, 0.68 0.82 C0.57 0.8, 0.47 0.77, 0.39 0.75 C0.3 0.72, 0.23 0.69, 0.17 0.67 C0.12 0.64, 0.07 0.61, 0.04 0.58 C0.01 0.56, 0 0.53, 0 0.5 C0 0.47, 0.01 0.44, 0.04 0.41 C0.07 0.38, 0.12 0.35, 0.17 0.33 C0.23 0.3, 0.3 0.27, 0.39 0.25 C0.47 0.22, 0.57 0.2, 0.68 0.18 C0.78 0.16, 0.91 0.13, 1.03 0.12 C1.16 0.1, 1.3 0.08, 1.45 0.07 C1.59 0.05, 1.75 0.04, 1.9 0.03 C2.06 0.02, 2.23 0.01, 2.39 0.01 C2.56 0, 2.73 0, 2.89 0 C3.06 0, 3.23 0, 3.4 0.01 C3.56 0.01, 3.73 0.02, 3.88 0.03 C4.04 0.04, 4.2 0.05, 4.34 0.07 C4.49 0.08, 4.63 0.1, 4.75 0.12 C4.88 0.13, 5 0.16, 5.11 0.18 C5.22 0.2, 5.32 0.22, 5.4 0.25 C5.48 0.27, 5.56 0.3, 5.61 0.33 C5.67 0.35, 5.72 0.38, 5.74 0.41 C5.77 0.44, 5.78 0.48, 5.79 0.5 C5.8 0.51, 5.8 0.48, 5.79 0.5" stroke="none" stroke-width="0" fill="#f783ac"></path><path d="M5.79 0.5 C5.79 0.53, 5.77 0.56, 5.74 0.58 C5.72 0.61, 5.67 0.64, 5.61 0.67 C5.56 0.69, 5.48 0.72, 5.4 0.75 C5.32 0.77, 5.22 0.8, 5.11 0.82 C5 0.84, 4.88 0.86, 4.75 0.88 C4.63 0.9, 4.49 0.91, 4.34 0.93 C4.2 0.94, 4.04 0.96, 3.88 0.97 C3.73 0.97, 3.56 0.98, 3.4 0.99 C3.23 0.99, 3.06 1, 2.89 1 C2.73 1, 2.56 0.99, 2.39 0.99 C2.23 0.98, 2.06 0.97, 1.9 0.97 C1.75 0.96, 1.59 0.94, 1.45 0.93 C1.3 0.91, 1.16 0.9, 1.03 0.88 C0.91 0.86, 0.78 0.84, 0.68 0.82 C0.57 0.8, 0.47 0.77, 0.39 0.75 C0.3 0.72, 0.23 0.69, 0.17 0.67 C0.12 0.64, 0.07 0.61, 0.04 0.58 C0.01 0.56, 0 0.53, 0 0.5 C0 0.47, 0.01 0.44, 0.04 0.41 C0.07 0.38, 0.12 0.35, 0.17 0.33 C0.23 0.3, 0.3 0.27, 0.39 0.25 C0.47 0.22, 0.57 0.2, 0.68 0.18 C0.78 0.16, 0.91 0.13, 1.03 0.12 C1.16 0.1, 1.3 0.08, 1.45 0.07 C1.59 0.05, 1.75 0.04, 1.9 0.03 C2.06 0.02, 2.23 0.01, 2.39 0.01 C2.56 0, 2.73 0, 2.89 0 C3.06 0, 3.23 0, 3.4 0.01 C3.56 0.01, 3.73 0.02, 3.88 0.03 C4.04 0.04, 4.2 0.05, 4.34 0.07 C4.49 0.08, 4.63 0.1, 4.75 0.12 C4.88 0.13, 5 0.16, 5.11 0.18 C5.22 0.2, 5.32 0.22, 5.4 0.25 C5.48 0.27, 5.56 0.3, 5.61 0.33 C5.67 0.35, 5.72 0.38, 5.74 0.41 C5.77 0.44, 5.78 0.48, 5.79 0.5 C5.8 0.51, 5.8 0.48, 5.79 0.5" stroke="transparent" stroke-width="2" fill="none"></path></g></svg>